<svg xmlns="http://www.w3.org/2000/svg" xmlns:xlink="http://www.w3.org/1999/xlink" width="320" height="458" viewBox="0 0 320 458">
    <defs>
        <linearGradient id="prefix__b" x1="31.894%" x2="65.293%" y1="48.228%" y2="51.879%">
            <stop offset="0%" stop-color="#5CCE59"/>
            <stop offset="100%" stop-color="#33835C"/>
        </linearGradient>
        <path id="prefix__a" d="M0.745 0L1047.745 0 1047.745 458 0.745 458z"/>
    </defs>
    <g fill="none" fill-rule="evenodd" transform="translate(-363.745)">
        <mask id="prefix__c" fill="#fff">
            <use xlink:href="#prefix__a"/>
        </mask>
        <path fill="url(#prefix__b)" d="M2045.144-218.487l7.723-44.28h-37.026c-12.737 0-23.63 9.24-25.825 21.903l-7.666 44.252h36.975c12.725 0 23.613-9.224 25.819-21.875m-88.545 80.67l7.72-44.28h-37.026c-12.736 0-23.63 9.24-25.824 21.904l-7.667 44.251h36.976c12.726 0 23.614-9.223 25.82-21.874m-88.186 80.04l7.723-44.28h-37.026c-12.735 0-23.63 9.24-25.823 21.903l-7.668 44.252h36.976c12.725 0 23.613-9.225 25.818-21.875m-88.546 80.67l7.722-44.28h-37.026c-12.736 0-23.63 9.239-25.824 21.904l-7.668 44.252h36.976c12.726 0 23.613-9.225 25.82-21.875m-88.184 80.041l7.722-44.28h-37.027c-12.736 0-23.63 9.24-25.824 21.903l-7.667 44.252h36.975c12.726 0 23.614-9.224 25.82-21.875m-88.548 80.67l7.723-44.28h-37.026c-12.737 0-23.63 9.24-25.825 21.903l-7.666 44.252h36.975c12.725 0 23.613-9.224 25.819-21.874m-88.548 80.67l7.724-44.28h-37.027c-12.736 0-23.63 9.238-25.824 21.903l-7.667 44.252h36.976c12.724 0 23.613-9.225 25.818-21.875m-87.553 80.405l7.722-44.281h-37.026c-12.737 0-23.63 9.24-25.824 21.904l-7.667 44.251h36.975c12.726 0 23.613-9.225 25.82-21.874m-88.547 80.67l7.721-44.281h-37.026c-12.735 0-23.629 9.24-25.823 21.904l-7.668 44.252h36.977c12.724 0 23.612-9.224 25.819-21.875m-88.185 80.04l7.722-44.28h-37.025c-12.736 0-23.63 9.24-25.824 21.903l-7.668 44.253h36.977c12.724 0 23.613-9.225 25.818-21.876m-88.547 80.671l7.722-44.28h-37.026c-12.737 0-23.63 9.238-25.825 21.903l-7.667 44.252h36.977c12.724 0 23.613-9.225 25.819-21.875m-88.548 80.671l7.722-44.281h-37.026c-12.737 0-23.63 9.24-25.825 21.904l-7.666 44.252h36.975c12.726 0 23.613-9.225 25.82-21.875m883.03-885.346l7.723-44.281h-37.027c-12.737 0-23.63 9.24-25.824 21.904l-7.667 44.251h36.977c12.726 0 23.613-9.223 25.819-21.874m-87.556 80.404l7.723-44.28h-37.026c-12.737 0-23.63 9.24-25.825 21.904l-7.666 44.25h36.976c12.724 0 23.613-9.223 25.818-21.874m-88.547 80.67l7.723-44.28h-37.026c-12.737 0-23.63 9.24-25.824 21.903l-7.668 44.252h36.976c12.726 0 23.613-9.224 25.819-21.874m-88.547 80.67l7.722-44.28h-37.026c-12.737 0-23.63 9.238-25.824 21.903l-7.667 44.252h36.976c12.725 0 23.613-9.225 25.82-21.875m-88.185 80.041l7.722-44.28H1574.1c-12.737 0-23.63 9.24-25.825 21.903l-7.667 44.252h36.977c12.724 0 23.613-9.224 25.818-21.875m-88.547 80.67l7.722-44.28h-37.026c-12.737 0-23.63 9.24-25.825 21.903l-7.667 44.252h36.976c12.725 0 23.614-9.224 25.82-21.874m-88.184 80.04l7.721-44.28h-37.026c-12.737 0-23.63 9.238-25.825 21.903l-7.666 44.252h36.976c12.725 0 23.613-9.225 25.82-21.875m-88.548 80.671l7.722-44.28h-37.026c-12.736 0-23.63 9.239-25.825 21.903l-7.667 44.252h36.976c12.726 0 23.613-9.225 25.82-21.875m-88.548 80.67l7.722-44.28h-37.025c-12.737 0-23.631 9.24-25.824 21.904l-7.668 44.251h36.976c12.725 0 23.613-9.223 25.82-21.874m-87.555 80.403l7.722-44.28h-37.026c-12.737 0-23.63 9.24-25.825 21.903l-7.667 44.253h36.975c12.726 0 23.614-9.225 25.82-21.876m-88.548 80.671l7.723-44.28h-37.026c-12.737 0-23.63 9.238-25.825 21.903l-7.666 44.252h36.975c12.726 0 23.613-9.225 25.819-21.875m-88.183 80.042l7.722-44.281h-37.026c-12.736 0-23.63 9.24-25.825 21.904l-7.666 44.251h36.975c12.726 0 23.613-9.225 25.82-21.874m882.666-884.717l7.723-44.281h-37.025c-12.737 0-23.63 9.24-25.825 21.904l-7.667 44.252h36.976c12.724 0 23.612-9.224 25.818-21.875m-88.183 80.041l7.722-44.281h-37.025c-12.737 0-23.631 9.24-25.826 21.904l-7.666 44.251h36.976c12.725 0 23.614-9.223 25.82-21.874m-88.548 80.67l7.722-44.28h-37.027c-12.736 0-23.63 9.24-25.824 21.903l-7.667 44.252h36.976c12.726 0 23.613-9.225 25.82-21.875m-87.555 80.405l7.722-44.281h-37.025c-12.737 0-23.631 9.238-25.825 21.903l-7.667 44.252h36.975c12.726 0 23.613-9.224 25.82-21.874m-88.548 80.67l7.723-44.28h-37.026c-12.737 0-23.63 9.24-25.825 21.904l-7.667 44.25h36.975c12.726 0 23.614-9.222 25.82-21.874m-88.185 80.041l7.723-44.28h-37.026c-12.737 0-23.63 9.24-25.825 21.902l-7.666 44.253h36.976c12.725 0 23.611-9.225 25.818-21.875m-88.546 80.67l7.722-44.28h-37.026c-12.736 0-23.63 9.238-25.825 21.903l-7.667 44.252h36.976c12.726 0 23.613-9.224 25.82-21.875m-88.548 80.671l7.722-44.28h-37.026c-12.736 0-23.63 9.239-25.824 21.904l-7.667 44.25h36.976c12.725 0 23.613-9.224 25.82-21.874m-88.185 80.041l7.722-44.28h-37.027c-12.736 0-23.63 9.24-25.824 21.903l-7.666 44.252h36.975c12.726 0 23.613-9.224 25.82-21.875m-88.549 80.67l7.724-44.28h-37.027c-12.736 0-23.63 9.24-25.824 21.903l-7.667 44.252h36.975c12.725 0 23.614-9.224 25.82-21.875m-88.185 80.041l7.723-44.28h-37.026c-12.737 0-23.63 9.238-25.825 21.903l-7.666 44.252h36.976c12.725 0 23.613-9.225 25.818-21.875m-87.918 81.035l7.723-44.281h-37.026c-12.737 0-23.63 9.24-25.823 21.904l-7.668 44.251h36.976c12.725 0 23.613-9.224 25.818-21.874m883.032-885.346l7.722-44.281h-37.025c-12.737 0-23.631 9.24-25.826 21.904l-7.666 44.251h36.976c12.725 0 23.612-9.223 25.82-21.874m-88.548 80.67l7.722-44.281h-37.027c-12.736 0-23.63 9.24-25.824 21.904l-7.667 44.252h36.976c12.726 0 23.613-9.224 25.82-21.875m-88.184 80.04l7.722-44.28h-37.027c-12.735 0-23.63 9.24-25.823 21.903l-7.668 44.252h36.976c12.725 0 23.613-9.224 25.82-21.874m-88.548 80.67l7.722-44.28h-37.027c-12.736 0-23.63 9.238-25.824 21.903l-7.667 44.252h36.976c12.726 0 23.613-9.225 25.82-21.875m-87.92 81.035l7.724-44.282h-37.026c-12.737 0-23.63 9.241-25.825 21.905l-7.667 44.251h36.975c12.726 0 23.613-9.223 25.82-21.874m-88.184 80.04l7.723-44.28h-37.026c-12.737 0-23.63 9.24-25.825 21.902l-7.667 44.253h36.976c12.726 0 23.613-9.225 25.819-21.874m-88.548 80.67l7.723-44.281h-37.026c-12.737 0-23.63 9.238-25.824 21.903l-7.667 44.252h36.975c12.726 0 23.614-9.224 25.82-21.874m-88.185 80.041l7.723-44.281h-37.026c-12.737 0-23.63 9.24-25.824 21.904l-7.667 44.251h36.975c12.726 0 23.613-9.224 25.819-21.874m-88.546 80.67l7.722-44.28h-37.027c-12.735 0-23.629 9.24-25.823 21.904l-7.668 44.25h36.976c12.726 0 23.614-9.222 25.82-21.874m-88.548 80.67l7.722-44.28h-37.027c-12.736 0-23.63 9.24-25.824 21.903l-7.667 44.252h36.977c12.725 0 23.613-9.224 25.819-21.875m-88.185 80.041l7.723-44.28h-37.026c-12.737 0-23.63 9.238-25.825 21.903l-7.667 44.252h36.976c12.725 0 23.613-9.224 25.819-21.875m-88.548 80.671l7.723-44.28h-37.026c-12.737 0-23.63 9.239-25.825 21.904l-7.666 44.25h36.976c12.724 0 23.613-9.224 25.818-21.874m883.66-884.982l7.724-44.281h-37.027c-12.736 0-23.63 9.24-25.824 21.904l-7.667 44.251h36.975c12.727 0 23.614-9.223 25.82-21.874m-88.548 80.67l7.723-44.28h-37.026c-12.737 0-23.63 9.24-25.824 21.903l-7.667 44.252h36.975c12.726 0 23.613-9.224 25.819-21.875m-88.184 80.04l7.723-44.28h-37.026c-12.737 0-23.63 9.24-25.824 21.903l-7.668 44.253h36.976c12.726 0 23.613-9.225 25.819-21.875m-88.547 80.67l7.722-44.28h-37.026c-12.736 0-23.629 9.238-25.823 21.903l-7.668 44.252h36.976c12.725 0 23.613-9.225 25.82-21.875m-88.185 80.042l7.722-44.281h-37.027c-12.735 0-23.63 9.24-25.824 21.904l-7.666 44.251h36.976c12.725 0 23.614-9.223 25.82-21.874m-88.548 80.67l7.722-44.281h-37.026c-12.737 0-23.63 9.24-25.825 21.903l-7.667 44.253h36.977c12.724 0 23.613-9.225 25.819-21.875m-87.92 81.034l7.724-44.281h-37.027c-12.736 0-23.63 9.238-25.824 21.903l-7.667 44.253h36.976c12.724 0 23.613-9.225 25.818-21.875m-88.182 80.041l7.722-44.281h-37.027c-12.737 0-23.63 9.24-25.823 21.904l-7.668 44.251h36.976c12.725 0 23.613-9.224 25.82-21.874m-88.548 80.67l7.722-44.28h-37.026c-12.736 0-23.63 9.24-25.824 21.904l-7.668 44.251h36.977c12.725 0 23.612-9.223 25.819-21.874m-88.184 80.04l7.722-44.28h-37.025c-12.737 0-23.63 9.24-25.825 21.902l-7.668 44.253h36.977c12.725 0 23.613-9.225 25.819-21.876m-88.549 80.672l7.723-44.281h-37.026c-12.737 0-23.63 9.238-25.825 21.903l-7.666 44.252h36.975c12.725 0 23.614-9.224 25.82-21.874m-88.547 80.67l7.722-44.28h-37.027c-12.736 0-23.63 9.239-25.824 21.904l-7.667 44.251h36.976c12.726 0 23.613-9.225 25.82-21.874m883.66-884.983l7.722-44.281h-37.026c-12.737 0-23.63 9.24-25.825 21.904l-7.667 44.251h36.977c12.725 0 23.613-9.223 25.819-21.874m-88.185 80.04l7.723-44.28h-37.026c-12.737 0-23.63 9.24-25.825 21.904l-7.667 44.251h36.976c12.725 0 23.613-9.223 25.819-21.874m-88.547 80.67l7.722-44.28h-37.026c-12.737 0-23.63 9.239-25.824 21.903l-7.667 44.252h36.976c12.725 0 23.613-9.225 25.82-21.875m-88.548 80.67l7.722-44.28h-37.027c-12.735 0-23.629 9.238-25.823 21.903l-7.668 44.252h36.977c12.725 0 23.612-9.225 25.819-21.875m-88.184 80.042l7.722-44.281h-37.025c-12.737 0-23.63 9.24-25.825 21.904l-7.668 44.251h36.977c12.725 0 23.613-9.223 25.819-21.874m-88.55 80.67l7.724-44.28h-37.026c-12.737 0-23.63 9.24-25.825 21.902l-7.666 44.253h36.975c12.725 0 23.613-9.225 25.819-21.875m-88.183 80.04l7.722-44.28h-37.026c-12.737 0-23.63 9.239-25.825 21.903l-7.667 44.253h36.976c12.726 0 23.613-9.225 25.82-21.875m-88.548 80.67l7.722-44.28h-37.026c-12.736 0-23.63 9.24-25.825 21.904l-7.666 44.251h36.976c12.725 0 23.613-9.224 25.82-21.874M896.82 425.55l7.722-44.281h-37.025c-12.737 0-23.631 9.24-25.824 21.904l-7.668 44.251H871c12.725 0 23.613-9.223 25.82-21.874m-88.186 80.04l7.723-44.28h-37.026c-12.737 0-23.632 9.24-25.825 21.903l-7.666 44.252h36.974c12.726 0 23.613-9.225 25.82-21.876m-88.548 80.672l7.724-44.281h-37.027c-12.736 0-23.63 9.238-25.824 21.903l-7.667 44.253h36.976c12.726 0 23.613-9.225 25.818-21.875m-88.184 80.041l7.723-44.281H602.6c-12.737 0-23.63 9.24-25.824 21.904l-7.667 44.251h36.976c12.725 0 23.613-9.224 25.818-21.874m882.669-884.716l7.722-44.282h-37.026c-12.737 0-23.63 9.241-25.825 21.905l-7.667 44.25h36.977c12.724 0 23.613-9.222 25.819-21.873m-87.555 80.404l7.722-44.281h-37.026c-12.737 0-23.63 9.24-25.825 21.904l-7.666 44.251h36.976c12.725 0 23.613-9.223 25.82-21.874m-88.548 80.67l7.722-44.28h-37.027c-12.735 0-23.63 9.239-25.824 21.903l-7.667 44.252h36.976c12.726 0 23.613-9.225 25.82-21.875m-88.184 80.041l7.722-44.28h-37.025c-12.737 0-23.632 9.238-25.825 21.903l-7.668 44.252h36.976c12.726 0 23.613-9.225 25.82-21.875m-88.55 80.67l7.724-44.28h-37.026c-12.737 0-23.632 9.24-25.825 21.904l-7.667 44.251h36.975c12.726 0 23.613-9.223 25.82-21.874m-88.184 80.04l7.723-44.28h-37.026c-12.737 0-23.63 9.24-25.825 21.903l-7.667 44.252h36.976c12.726 0 23.613-9.224 25.819-21.874m-88.548 80.67l7.723-44.28h-37.026c-12.736 0-23.63 9.238-25.825 21.903l-7.666 44.252h36.976c12.725 0 23.613-9.225 25.818-21.875m-88.546 80.67l7.722-44.28h-37.027c-12.735 0-23.63 9.24-25.823 21.904l-7.668 44.251h36.976c12.726 0 23.613-9.224 25.82-21.874m-88.184 80.04l7.722-44.28H778.97c-12.736 0-23.631 9.24-25.824 21.904l-7.667 44.251h36.975c12.726 0 23.614-9.223 25.82-21.874m-87.919 81.033l7.724-44.28H691.05c-12.735 0-23.629 9.24-25.823 21.903l-7.667 44.252h36.975c12.725 0 23.614-9.224 25.82-21.875m-88.185 80.041l7.723-44.28h-37.026c-12.737 0-23.63 9.238-25.825 21.903l-7.666 44.252h36.976c12.724 0 23.613-9.225 25.818-21.875m-88.547 80.671l7.723-44.28H514.32c-12.737 0-23.63 9.239-25.824 21.903l-7.668 44.252h36.976c12.726 0 23.613-9.225 25.819-21.875m883.03-885.346l7.724-44.281h-37.027c-12.736 0-23.63 9.24-25.824 21.904l-7.667 44.251h36.976c12.726 0 23.613-9.223 25.818-21.874m-88.547 80.67l7.723-44.28h-37.026c-12.736 0-23.63 9.24-25.825 21.904l-7.666 44.251h36.975c12.726 0 23.613-9.223 25.819-21.874m-88.183 80.04l7.722-44.28h-37.026c-12.736 0-23.63 9.24-25.824 21.903l-7.668 44.252h36.976c12.726 0 23.613-9.225 25.82-21.875m-87.918 81.034l7.722-44.28H1132.7c-12.736 0-23.63 9.238-25.824 21.903l-7.667 44.252h36.976c12.726 0 23.613-9.225 25.82-21.875m-88.549 80.671l7.723-44.281h-37.027c-12.736 0-23.63 9.24-25.824 21.904l-7.666 44.251h36.974c12.726 0 23.615-9.223 25.82-21.874m-88.184 80.04l7.723-44.28H955.97c-12.737 0-23.63 9.24-25.825 21.903l-7.666 44.252h36.976c12.724 0 23.613-9.224 25.818-21.874m-88.548 80.67l7.724-44.28h-37.027c-12.736 0-23.63 9.238-25.823 21.903l-7.668 44.252h36.976c12.726 0 23.613-9.225 25.818-21.875m-88.184 80.041l7.724-44.28h-37.027c-12.737 0-23.63 9.239-25.823 21.903l-7.668 44.252h36.976c12.726 0 23.613-9.225 25.818-21.875m-88.546 80.67l7.722-44.28H690.69c-12.736 0-23.63 9.24-25.824 21.904l-7.668 44.251h36.976c12.726 0 23.614-9.223 25.82-21.874m-88.548 80.67l7.722-44.28h-37.027c-12.735 0-23.629 9.24-25.824 21.902l-7.666 44.253h36.976c12.725 0 23.614-9.225 25.82-21.876m-88.185 80.042l7.722-44.28H513.96c-12.737 0-23.631 9.238-25.826 21.903l-7.666 44.252h36.976c12.725 0 23.614-9.225 25.82-21.875m-87.92 81.034l7.723-44.28h-37.026c-12.737 0-23.63 9.239-25.825 21.903l-7.666 44.252h36.976c12.724 0 23.613-9.225 25.818-21.875m883.03-885.346l7.724-44.281h-37.026c-12.737 0-23.63 9.24-25.825 21.904l-7.666 44.252h36.975c12.725 0 23.613-9.224 25.819-21.875m-88.548 80.67l7.723-44.28h-37.026c-12.737 0-23.63 9.24-25.823 21.904l-7.668 44.251h36.976c12.725 0 23.613-9.223 25.818-21.874m-88.184 80.04l7.723-44.28h-37.026c-12.737 0-23.63 9.24-25.823 21.903l-7.668 44.252h36.976c12.725 0 23.613-9.225 25.818-21.875m-88.546 80.67l7.722-44.28h-37.027c-12.735 0-23.629 9.238-25.823 21.903L1010.3 44.69h36.976c12.726 0 23.614-9.225 25.82-21.875m-88.184 80.041l7.722-44.281h-37.027c-12.736 0-23.63 9.24-25.824 21.904l-7.667 44.251h36.977c12.724 0 23.613-9.223 25.819-21.874m-87.918 81.034l7.722-44.281H867.69c-12.737 0-23.63 9.24-25.825 21.903l-7.667 44.252h36.977c12.724 0 23.613-9.224 25.819-21.874m-88.55 80.67l7.724-44.28h-37.026c-12.737 0-23.63 9.238-25.825 21.903l-7.666 44.252h36.975c12.725 0 23.613-9.225 25.819-21.875M720.263 344.6l7.722-44.28h-37.026c-12.737 0-23.63 9.239-25.824 21.904l-7.668 44.25h36.976c12.726 0 23.613-9.224 25.82-21.874m-88.548 80.671l7.722-44.281h-37.026c-12.735 0-23.629 9.24-25.823 21.904l-7.668 44.251h36.976c12.725 0 23.613-9.223 25.82-21.874m-88.185 80.04l7.722-44.28h-37.025c-12.737 0-23.63 9.24-25.825 21.903l-7.667 44.252h36.977c12.724 0 23.612-9.224 25.818-21.875m-88.549 80.671l7.724-44.28h-37.027c-12.736 0-23.63 9.238-25.824 21.903l-7.667 44.252h36.976c12.724 0 23.613-9.225 25.818-21.875m-88.546 80.671l7.722-44.281h-37.026c-12.737 0-23.63 9.24-25.825 21.904l-7.666 44.251h36.975c12.726 0 23.613-9.224 25.82-21.874m883.66-884.983l7.722-44.28h-37.025c-12.737 0-23.631 9.24-25.825 21.903l-7.667 44.252h36.976c12.725 0 23.614-9.224 25.82-21.875m-88.186 80.041l7.723-44.28h-37.026c-12.737 0-23.63 9.24-25.825 21.903l-7.666 44.252h36.976c12.724 0 23.613-9.224 25.818-21.875m-88.546 80.67l7.722-44.28h-37.027c-12.736 0-23.63 9.24-25.823 21.903l-7.668 44.252h36.976c12.726 0 23.613-9.225 25.82-21.875m-88.548 80.67l7.722-44.28h-37.026c-12.736 0-23.63 9.239-25.824 21.904l-7.667 44.252h36.975c12.726 0 23.613-9.225 25.82-21.875m-88.184 80.041l7.722-44.281H867.33c-12.737 0-23.63 9.24-25.825 21.904l-7.667 44.252h36.976c12.725 0 23.612-9.224 25.82-21.875m-88.55 80.67l7.723-44.28h-37.026c-12.737 0-23.63 9.24-25.825 21.903l-7.666 44.252h36.976c12.724 0 23.613-9.225 25.818-21.874m-88.183 80.04l7.722-44.28h-37.026c-12.737 0-23.63 9.238-25.825 21.903l-7.666 44.252h36.976c12.725 0 23.613-9.225 25.82-21.875m-87.919 81.035l7.722-44.282H602.68c-12.736 0-23.63 9.24-25.825 21.905l-7.666 44.251h36.976c12.725 0 23.613-9.225 25.82-21.874m-88.185 80.04l7.722-44.28h-37.025c-12.737 0-23.631 9.24-25.825 21.904l-7.667 44.251h36.975c12.726 0 23.613-9.223 25.82-21.874m-88.549 80.669l7.724-44.28h-37.027c-12.736 0-23.63 9.24-25.824 21.903l-7.667 44.252h36.975c12.725 0 23.613-9.224 25.82-21.875m-88.548 80.671l7.723-44.28H337.4c-12.737 0-23.63 9.238-25.825 21.903l-7.666 44.252h36.975c12.726 0 23.613-9.225 25.819-21.875m-88.184 80.041l7.723-44.28h-37.026c-12.737 0-23.63 9.239-25.825 21.904l-7.667 44.25H252.7c12.726 0 23.613-9.224 25.819-21.874m883.66-884.982l7.723-44.281h-37.026c-12.737 0-23.63 9.24-25.825 21.904l-7.666 44.251h36.976c12.724 0 23.613-9.223 25.818-21.874m-88.546 80.67l7.722-44.28h-37.027c-12.736 0-23.63 9.24-25.824 21.903l-7.667 44.252h36.976c12.726 0 23.613-9.224 25.82-21.875m-88.548 80.67l7.722-44.28h-37.026c-12.736 0-23.63 9.24-25.825 21.903l-7.666 44.252h36.975c12.726 0 23.613-9.225 25.82-21.875M896.901 22.66l7.722-44.28h-37.025c-12.737 0-23.632 9.238-25.825 21.903l-7.668 44.252h36.976c12.726 0 23.613-9.225 25.82-21.875m-88.549 80.671l7.723-44.28H779.05c-12.737 0-23.63 9.24-25.825 21.903l-7.666 44.252h36.974c12.726 0 23.613-9.224 25.82-21.875m-88.184 80.041l7.723-44.28h-37.026c-12.737 0-23.63 9.24-25.825 21.902l-7.666 44.253h36.976c12.725 0 23.613-9.225 25.818-21.875m-88.547 80.67l7.723-44.28h-37.027c-12.736 0-23.63 9.238-25.824 21.903l-7.667 44.252h36.976c12.726 0 23.613-9.225 25.819-21.875m-88.547 80.671l7.722-44.28H513.77c-12.736 0-23.63 9.239-25.824 21.903l-7.667 44.252h36.975c12.726 0 23.613-9.225 25.82-21.875m-87.554 80.405l7.722-44.281h-37.027c-12.736 0-23.63 9.24-25.824 21.904l-7.667 44.251H429.7c12.726 0 23.614-9.223 25.82-21.874m-88.548 80.669l7.723-44.28h-37.028c-12.735 0-23.629 9.24-25.823 21.903l-7.666 44.253h36.974c12.726 0 23.614-9.225 25.82-21.876m-88.184 80.042l7.723-44.281h-37.026c-12.737 0-23.63 9.238-25.825 21.903l-7.667 44.253h36.976c12.725 0 23.613-9.225 25.819-21.875m-88.548 80.67l7.723-44.28h-37.026c-12.737 0-23.63 9.239-25.823 21.904l-7.668 44.251h36.976c12.725 0 23.613-9.225 25.818-21.874m883.03-885.347l7.724-44.28h-37.026c-12.737 0-23.63 9.24-25.825 21.904l-7.666 44.25h36.975c12.726 0 23.613-9.222 25.819-21.874m-88.548 80.671l7.723-44.281H955.42c-12.737 0-23.63 9.24-25.825 21.904l-7.666 44.251h36.976c12.725 0 23.613-9.223 25.818-21.874M897.17-57.772l7.722-44.28h-37.026c-12.736 0-23.63 9.239-25.824 21.903l-7.668 44.252h36.976c12.726 0 23.613-9.225 25.82-21.875m-88.548 80.67l7.722-44.28h-37.027c-12.735 0-23.629 9.238-25.824 21.903l-7.666 44.252H782.8c12.726 0 23.613-9.224 25.82-21.874m-88.548 80.67l7.723-44.28h-37.028c-12.735 0-23.629 9.24-25.823 21.904l-7.667 44.25h36.975c12.725 0 23.614-9.223 25.82-21.874m-88.185 80.041l7.724-44.28h-37.027c-12.736 0-23.63 9.24-25.824 21.902l-7.667 44.253h36.976c12.724 0 23.613-9.225 25.818-21.875m-88.547 80.67l7.723-44.28h-37.026c-12.737 0-23.63 9.238-25.824 21.903l-7.667 44.252h36.975c12.726 0 23.613-9.225 25.819-21.875m-88.184 80.042l7.723-44.281h-37.026c-12.737 0-23.63 9.24-25.824 21.904l-7.668 44.251h36.976c12.726 0 23.613-9.224 25.819-21.874m-88.547 80.67l7.722-44.28h-37.026c-12.735 0-23.629 9.24-25.823 21.903l-7.668 44.252h36.976c12.725 0 23.614-9.224 25.82-21.875m-88.548 80.67l7.722-44.28h-37.026c-12.736 0-23.63 9.24-25.824 21.903l-7.668 44.252h36.977c12.725 0 23.613-9.224 25.819-21.875m-87.555 80.405l7.722-44.28h-37.025c-12.737 0-23.631 9.238-25.826 21.903l-7.666 44.252h36.976c12.725 0 23.614-9.225 25.82-21.875m-88.55 80.67l7.724-44.28H72.656c-12.736 0-23.63 9.24-25.824 21.904l-7.667 44.251h36.976c12.726 0 23.613-9.224 25.819-21.874m883.03-885.346l7.723-44.282h-37.026c-12.737 0-23.63 9.241-25.825 21.905l-7.666 44.251h36.976c12.724 0 23.613-9.223 25.818-21.874m-88.547 80.67l7.723-44.281H867.14c-12.737 0-23.63 9.24-25.824 21.904l-7.668 44.252h36.976c12.726 0 23.613-9.224 25.819-21.875m-88.184 80.04l7.723-44.28h-37.027c-12.736 0-23.629 9.24-25.823 21.903l-7.668 44.252h36.976c12.726 0 23.613-9.224 25.819-21.874m-88.547 80.67l7.722-44.28h-37.026c-12.736 0-23.63 9.238-25.824 21.903l-7.667 44.252h36.975c12.726 0 23.615-9.225 25.82-21.875m-87.554 80.405l7.722-44.281h-37.027c-12.735 0-23.629 9.24-25.823 21.904l-7.668 44.251h36.977c12.725 0 23.613-9.223 25.819-21.874m-88.548 80.67l7.722-44.28h-37.026c-12.737 0-23.63 9.24-25.825 21.902l-7.666 44.253h36.976c12.725 0 23.613-9.225 25.819-21.875m-88.549 80.67l7.723-44.28h-37.026c-12.737 0-23.63 9.238-25.825 21.903l-7.666 44.252h36.976c12.725 0 23.613-9.224 25.818-21.874m-88.183 80.04l7.722-44.28h-37.026c-12.737 0-23.63 9.24-25.825 21.904l-7.666 44.251h36.976c12.725 0 23.613-9.224 25.82-21.874m-88.548 80.67l7.722-44.28h-37.027c-12.735 0-23.63 9.24-25.823 21.904l-7.668 44.25h36.976c12.726 0 23.613-9.223 25.82-21.874m-88.184 80.04l7.722-44.28h-37.025c-12.737 0-23.63 9.241-25.825 21.903l-7.668 44.253h36.977c12.725 0 23.612-9.225 25.819-21.876m-88.55 80.671l7.724-44.28H72.295c-12.737 0-23.63 9.238-25.825 21.903l-7.666 44.252h36.975c12.726 0 23.613-9.225 25.819-21.875m-88.546 80.671l7.721-44.28h-37.026c-12.737 0-23.63 9.239-25.825 21.903l-7.666 44.252h36.976c12.725 0 23.613-9.225 25.82-21.875m883.66-884.982l7.722-44.281h-37.026c-12.737 0-23.63 9.24-25.825 21.904l-7.667 44.251h36.977c12.724 0 23.613-9.223 25.819-21.874m-88.185 80.04l7.723-44.28h-37.027c-12.736 0-23.63 9.24-25.824 21.904l-7.667 44.251h36.976c12.726 0 23.613-9.223 25.819-21.874M719.98-57.66l7.722-44.281h-37.026c-12.737 0-23.63 9.24-25.825 21.903l-7.666 44.253h36.975c12.726 0 23.613-9.225 25.82-21.875m-88.547 80.67l7.722-44.28h-37.027c-12.735 0-23.63 9.238-25.823 21.903l-7.668 44.252h36.976c12.725 0 23.613-9.225 25.82-21.875m-88.185 80.042l7.722-44.282h-37.025c-12.736 0-23.63 9.241-25.824 21.905l-7.668 44.251h36.977c12.724 0 23.612-9.223 25.818-21.874m-87.919 81.034l7.723-44.282h-37.026c-12.737 0-23.63 9.241-25.825 21.903l-7.666 44.253h36.976c12.725 0 23.613-9.225 25.818-21.874m-88.183 80.04l7.722-44.28h-37.026c-12.737 0-23.63 9.238-25.825 21.903l-7.666 44.252h36.976c12.725 0 23.613-9.225 25.82-21.875m-88.548 80.671l7.722-44.281h-37.027c-12.735 0-23.63 9.24-25.823 21.904l-7.668 44.251h36.976c12.726 0 23.613-9.224 25.82-21.874m-88.184 80.041l7.722-44.281H161.11c-12.735 0-23.63 9.24-25.823 21.904l-7.668 44.251h36.976c12.726 0 23.613-9.223 25.82-21.874m-88.55 80.67l7.724-44.28H72.563c-12.737 0-23.63 9.24-25.825 21.902l-7.666 44.253h36.974c12.726 0 23.613-9.225 25.82-21.876M13.318 586.18l7.723-44.281h-37.026c-12.737 0-23.63 9.238-25.825 21.903l-7.666 44.252H-12.5c12.725 0 23.613-9.224 25.818-21.874m-88.184 80.04l7.723-44.28h-37.026c-12.737 0-23.63 9.24-25.823 21.904l-7.668 44.251h36.976c12.725 0 23.613-9.224 25.818-21.874m883.66-884.983l7.724-44.28H779.49c-12.736 0-23.63 9.24-25.824 21.903L746-196.887h36.976c12.726 0 23.613-9.224 25.819-21.875m-88.547 80.67l7.722-44.28h-37.026c-12.737 0-23.63 9.24-25.825 21.904l-7.666 44.251h36.975c12.726 0 23.613-9.223 25.82-21.874m-88.547 80.67l7.721-44.28h-37.026c-12.735 0-23.63 9.239-25.823 21.903l-7.668 44.252h36.976c12.725 0 23.613-9.225 25.82-21.875m-88.185 80.04l7.722-44.28h-37.026c-12.735 0-23.63 9.239-25.823 21.903l-7.668 44.253h36.976c12.725 0 23.613-9.225 25.82-21.875m-88.55 80.67l7.724-44.28h-37.026c-12.737 0-23.63 9.24-25.825 21.904l-7.667 44.251h36.975c12.726 0 23.613-9.223 25.82-21.874m-88.184 80.04l7.723-44.28H337.48c-12.736 0-23.63 9.24-25.824 21.903l-7.667 44.252h36.976c12.726 0 23.613-9.225 25.819-21.874m-88.548 80.67l7.723-44.281h-37.026c-12.737 0-23.63 9.238-25.824 21.903l-7.667 44.253h36.975c12.726 0 23.613-9.225 25.819-21.875m-87.918 81.034l7.723-44.281h-37.026c-12.736 0-23.63 9.24-25.824 21.904l-7.667 44.252h36.975c12.726 0 23.613-9.225 25.819-21.875m-88.183 80.041l7.722-44.281H72.83c-12.736 0-23.63 9.24-25.824 21.904l-7.666 44.252h36.975c12.726 0 23.613-9.224 25.82-21.875m-88.548 80.67l7.722-44.28h-37.027c-12.735 0-23.629 9.24-25.823 21.902l-7.667 44.253h36.976c12.725 0 23.614-9.225 25.82-21.876m-88.186 80.042l7.723-44.28H-103.9c-12.737 0-23.63 9.238-25.825 21.903l-7.666 44.252h36.976c12.724 0 23.613-9.225 25.818-21.875m-88.547 80.671l7.723-44.281h-37.027c-12.736 0-23.63 9.24-25.824 21.904l-7.667 44.251h36.976c12.726 0 23.613-9.224 25.819-21.874m883.03-885.346l7.723-44.281h-37.026c-12.737 0-23.63 9.24-25.825 21.904l-7.666 44.251h36.976c12.725 0 23.613-9.223 25.818-21.874m-87.918 81.034l7.723-44.281h-37.026c-12.737 0-23.63 9.24-25.823 21.904l-7.668 44.251h36.976c12.725 0 23.613-9.223 25.818-21.874m-88.184 80.04l7.723-44.28H514.48c-12.735 0-23.63 9.24-25.823 21.903l-7.668 44.252h36.976c12.725 0 23.613-9.225 25.818-21.875m-88.546 80.67l7.722-44.28h-37.027c-12.736 0-23.63 9.239-25.824 21.904l-7.667 44.252h36.975c12.726 0 23.614-9.225 25.82-21.875m-88.547 80.67l7.722-44.28h-37.027c-12.736 0-23.63 9.24-25.824 21.904l-7.666 44.251h36.976c12.725 0 23.614-9.223 25.82-21.874m-88.186 80.04l7.723-44.28h-37.026c-12.737 0-23.63 9.24-25.825 21.903l-7.666 44.252h36.975c12.725 0 23.613-9.224 25.819-21.874m-88.548 80.67l7.723-44.28h-37.026c-12.737 0-23.63 9.238-25.823 21.903l-7.668 44.252h36.976c12.724 0 23.613-9.225 25.818-21.875m-88.184 80.041l7.723-44.28H72.47c-12.737 0-23.629 9.239-25.823 21.903l-7.668 44.252h36.976c12.725 0 23.613-9.225 25.818-21.875m-88.546 80.67l7.722-44.28h-37.026c-12.737 0-23.63 9.24-25.824 21.904l-7.668 44.251h36.977c12.725 0 23.612-9.223 25.819-21.874m-87.918 81.032l7.722-44.28h-37.025c-12.737 0-23.63 9.241-25.825 21.904l-7.668 44.252h36.977c12.725 0 23.613-9.224 25.819-21.876m-88.184 80.042l7.722-44.28h-37.026c-12.737 0-23.63 9.238-25.825 21.903l-7.667 44.252h36.977c12.724 0 23.613-9.225 25.819-21.875m-88.55 80.671l7.724-44.281h-37.026c-12.737 0-23.63 9.24-25.825 21.904l-7.666 44.252h36.975c12.726 0 23.613-9.225 25.819-21.875m883.03-885.346l7.724-44.281h-37.026c-12.737 0-23.63 9.24-25.825 21.904l-7.667 44.251h36.976c12.725 0 23.613-9.223 25.819-21.874m-88.548 80.67l7.723-44.28h-37.026c-12.737 0-23.63 9.24-25.824 21.904l-7.667 44.25h36.976c12.724 0 23.613-9.222 25.818-21.873m-88.184 80.04l7.723-44.28h-37.026c-12.737 0-23.63 9.239-25.824 21.903l-7.667 44.252h36.975c12.726 0 23.613-9.225 25.819-21.875m-87.917 81.034l7.722-44.28h-37.026c-12.737 0-23.63 9.238-25.824 21.903l-7.667 44.252h36.977c12.724 0 23.611-9.225 25.818-21.875m-88.184 80.041l7.722-44.28H249.47c-12.737 0-23.63 9.24-25.825 21.904l-7.667 44.25h36.977c12.724 0 23.613-9.223 25.818-21.874m-88.548 80.67l7.722-44.28h-37.025c-12.737 0-23.63 9.24-25.825 21.903l-7.667 44.252h36.976c12.725 0 23.614-9.224 25.82-21.874m-88.55 80.67l7.724-44.28H72.374c-12.737 0-23.63 9.238-25.825 21.903l-7.667 44.252h36.976c12.726 0 23.613-9.225 25.819-21.875m-88.183 80.041l7.722-44.28h-37.027c-12.736 0-23.63 9.239-25.824 21.903l-7.667 44.252h36.976c12.726 0 23.613-9.225 25.82-21.875m-88.548 80.67l7.722-44.28h-37.025c-12.737 0-23.631 9.24-25.825 21.904l-7.667 44.251h36.975c12.726 0 23.613-9.223 25.82-21.874m-88.184 80.04l7.722-44.28h-37.026c-12.737 0-23.63 9.24-25.825 21.903l-7.666 44.252h36.976c12.725 0 23.612-9.224 25.819-21.875m-88.549 80.67l7.723-44.28h-37.026c-12.737 0-23.63 9.239-25.825 21.904l-7.666 44.252h36.976c12.725 0 23.612-9.225 25.818-21.875m-87.553 80.405l7.722-44.281h-37.026c-12.737 0-23.63 9.24-25.825 21.904l-7.666 44.251h36.975c12.726 0 23.613-9.225 25.82-21.874m882.667-884.717l7.722-44.281h-37.025c-12.737 0-23.631 9.24-25.826 21.904l-7.666 44.252h36.976c12.725 0 23.614-9.224 25.82-21.875m-88.186 80.041l7.723-44.281H425.84c-12.737 0-23.63 9.24-25.825 21.904l-7.666 44.251h36.975c12.726 0 23.613-9.223 25.819-21.874M366.596-57.7l7.722-44.28H337.29c-12.737 0-23.63 9.24-25.824 21.903L303.8-35.825h36.976c12.725 0 23.613-9.225 25.82-21.875M278.41 22.341l7.722-44.28h-37.025c-12.736 0-23.631 9.238-25.824 21.903l-7.668 44.252h36.976c12.725 0 23.613-9.225 25.82-21.875m-87.919 81.035l7.722-44.282H161.19c-12.736 0-23.63 9.241-25.824 21.905l-7.668 44.25h36.977c12.724 0 23.612-9.222 25.818-21.873m-88.548 80.67l7.723-44.281H72.642c-12.737 0-23.63 9.24-25.825 21.903L39.15 205.92h36.976c12.726 0 23.612-9.224 25.819-21.874m-88.183 80.04l7.722-44.28h-37.027c-12.736 0-23.63 9.238-25.824 21.903l-7.667 44.252h36.976c12.726 0 23.613-9.224 25.82-21.874m-88.548 80.67l7.722-44.28h-37.026c-12.736 0-23.63 9.239-25.824 21.904l-7.667 44.25h36.975c12.726 0 23.613-9.224 25.82-21.874m-88.184 80.041l7.722-44.28h-37.027c-12.736 0-23.63 9.24-25.824 21.904l-7.666 44.25h36.975c12.726 0 23.613-9.223 25.82-21.874m-88.549 80.67l7.723-44.28h-37.026c-12.737 0-23.63 9.24-25.825 21.903l-7.666 44.252h36.974c12.726 0 23.614-9.224 25.82-21.875m-88.547 80.671l7.723-44.28h-37.026c-12.737 0-23.63 9.238-25.825 21.903l-7.667 44.252h36.976c12.726 0 23.613-9.225 25.819-21.875m-88.184 80.041l7.723-44.28h-37.027c-12.736 0-23.63 9.239-25.823 21.903l-7.668 44.252h36.976c12.726 0 23.613-9.225 25.819-21.875m883.66-884.982l7.723-44.281h-37.026c-12.737 0-23.63 9.24-25.825 21.904l-7.666 44.251h36.975c12.726 0 23.612-9.223 25.819-21.874m-88.546 80.67l7.721-44.281H337.56c-12.737 0-23.63 9.24-25.825 21.904l-7.666 44.252h36.976c12.725 0 23.613-9.224 25.82-21.875m-88.548 80.67l7.722-44.28h-37.026c-12.736 0-23.63 9.24-25.824 21.903l-7.668 44.252h36.976c12.726 0 23.613-9.225 25.82-21.875M190.132 22.58l7.722-44.28h-37.026c-12.736 0-23.63 9.238-25.824 21.903l-7.668 44.252h36.976c12.726 0 23.613-9.225 25.82-21.875m-88.549 80.671l7.723-44.281H72.28c-12.737 0-23.63 9.24-25.825 21.904l-7.666 44.252h36.974c12.726 0 23.613-9.224 25.82-21.875M13.4 183.291l7.723-44.281h-37.026c-12.737 0-23.63 9.24-25.825 21.903l-7.666 44.252h36.975c12.726 0 23.613-9.224 25.819-21.874m-87.918 81.034l7.723-44.281h-37.026c-12.737 0-23.63 9.238-25.824 21.903l-7.667 44.252h36.975c12.726 0 23.613-9.224 25.819-21.874m-88.548 80.67l7.724-44.28h-37.027c-12.735 0-23.63 9.239-25.823 21.904l-7.668 44.251h36.976c12.725 0 23.613-9.225 25.818-21.874m-88.183 80.04l7.722-44.28h-37.026c-12.735 0-23.629 9.24-25.823 21.904l-7.668 44.25h36.976c12.725 0 23.613-9.222 25.82-21.874m-88.548 80.67l7.722-44.28h-37.027c-12.736 0-23.63 9.24-25.824 21.903l-7.667 44.252h36.977c12.724 0 23.613-9.224 25.819-21.875m-88.185 80.042l7.723-44.281h-37.027c-12.736 0-23.63 9.238-25.824 21.903l-7.667 44.252h36.976c12.724 0 23.613-9.224 25.819-21.874m-88.548 80.67l7.723-44.28h-37.026c-12.737 0-23.63 9.239-25.825 21.904l-7.666 44.25h36.975c12.725 0 23.613-9.224 25.819-21.874m883.66-884.982l7.723-44.281h-37.026c-12.737 0-23.63 9.24-25.825 21.904l-7.666 44.251h36.976c12.725 0 23.613-9.223 25.818-21.874m-88.547 80.67l7.723-44.28H249.28c-12.737 0-23.63 9.24-25.824 21.903l-7.668 44.252h36.976c12.726 0 23.613-9.224 25.819-21.875m-88.184 80.04l7.723-44.28h-37.026c-12.736 0-23.63 9.24-25.824 21.904l-7.668 44.252h36.976c12.726 0 23.613-9.225 25.819-21.875m-88.547 80.67l7.722-44.28H72.548c-12.736 0-23.63 9.238-25.824 21.903l-7.667 44.252h36.975c12.726 0 23.613-9.225 25.82-21.875m-88.547 80.671l7.722-44.28H-16c-12.736 0-23.63 9.24-25.824 21.903l-7.667 44.252h36.977c12.724 0 23.613-9.224 25.819-21.875m-88.186 80.041l7.723-44.281h-37.026c-12.737 0-23.63 9.24-25.825 21.903l-7.666 44.253h36.976c12.724 0 23.613-9.225 25.818-21.875m-88.547 80.67l7.723-44.28h-37.026c-12.737 0-23.63 9.238-25.825 21.903l-7.667 44.252h36.976c12.725 0 23.613-9.225 25.819-21.875m-88.183 80.042l7.722-44.282h-37.026c-12.737 0-23.63 9.24-25.824 21.905l-7.668 44.251h36.976c12.726 0 23.613-9.225 25.82-21.874m-87.918 81.034l7.722-44.282h-37.026c-12.736 0-23.63 9.241-25.824 21.905l-7.668 44.251h36.977c12.725 0 23.612-9.223 25.819-21.874m-88.548 80.669l7.722-44.28h-37.025c-12.737 0-23.63 9.24-25.825 21.903l-7.667 44.253h36.977c12.724 0 23.613-9.225 25.818-21.876m-88.184 80.042l7.722-44.281h-37.025c-12.737 0-23.63 9.238-25.825 21.903l-7.667 44.252h36.977c12.724 0 23.613-9.224 25.818-21.874m-88.548 80.67l7.723-44.28h-37.026c-12.737 0-23.63 9.239-25.825 21.904l-7.667 44.251h36.976c12.725 0 23.614-9.225 25.82-21.874m883.03-885.347l7.722-44.28h-37.026c-12.737 0-23.63 9.24-25.825 21.904l-7.666 44.25h36.976c12.724 0 23.613-9.223 25.818-21.874m-87.918 81.034l7.723-44.28H161c-12.737 0-23.63 9.24-25.825 21.904l-7.666 44.25h36.976c12.724 0 23.613-9.223 25.818-21.874m-88.183 80.04l7.722-44.28H72.816c-12.737 0-23.63 9.24-25.824 21.904L39.325-35.74H76.3c12.726 0 23.613-9.225 25.82-21.875m-88.547 80.67l7.722-44.28h-37.027c-12.735 0-23.629 9.238-25.823 21.903l-7.668 44.252h36.977c12.725 0 23.612-9.225 25.819-21.875m-88.184 80.042l7.721-44.281h-37.025c-12.736 0-23.63 9.24-25.824 21.904l-7.668 44.251h36.977c12.724 0 23.613-9.223 25.819-21.874m-88.548 80.67l7.722-44.28h-37.026c-12.737 0-23.63 9.24-25.825 21.902l-7.667 44.253h36.977c12.724 0 23.613-9.225 25.819-21.875m-88.548 80.67l7.722-44.28h-37.026c-12.737 0-23.63 9.238-25.825 21.903l-7.666 44.252h36.976c12.725 0 23.613-9.225 25.82-21.875m-88.185 80.042l7.722-44.281h-37.026c-12.736 0-23.63 9.24-25.825 21.904l-7.666 44.251h36.975c12.726 0 23.613-9.224 25.82-21.874m-88.547 80.67l7.722-44.28h-37.025c-12.737 0-23.632 9.24-25.825 21.903l-7.668 44.252h36.976c12.726 0 23.613-9.224 25.82-21.875m-87.555 80.403l7.722-44.28h-37.025c-12.737 0-23.63 9.241-25.825 21.904l-7.667 44.252h36.975c12.726 0 23.613-9.225 25.82-21.876m-88.548 80.672l7.722-44.281h-37.025c-12.737 0-23.63 9.239-25.825 21.903l-7.667 44.253h36.976c12.725 0 23.613-9.225 25.82-21.875m-88.186 80.041l7.723-44.281h-37.026c-12.737 0-23.63 9.24-25.825 21.904l-7.666 44.252h36.976c12.725 0 23.613-9.225 25.818-21.875M189.943-218.45l7.722-44.282h-37.026c-12.737 0-23.63 9.241-25.825 21.905l-7.667 44.251h36.977c12.724 0 23.613-9.223 25.819-21.874m-88.184 80.04l7.722-44.28H72.454c-12.737 0-23.63 9.24-25.824 21.904l-7.667 44.25H75.94c12.725 0 23.613-9.222 25.82-21.874M13.21-57.74l7.722-44.28h-37.026c-12.736 0-23.63 9.24-25.825 21.903l-7.667 44.252h36.976c12.726 0 23.613-9.224 25.82-21.874m-87.554 80.404l7.721-44.28h-37.025c-12.736 0-23.631 9.238-25.824 21.903l-7.668 44.252h36.976c12.725 0 23.613-9.225 25.82-21.875m-88.548 80.67l7.722-44.28h-37.026c-12.737 0-23.632 9.24-25.825 21.904l-7.667 44.251h36.976c12.725 0 23.613-9.223 25.82-21.874m-88.549 80.67l7.723-44.28h-37.026c-12.737 0-23.63 9.24-25.825 21.902l-7.666 44.253h36.976c12.725 0 23.613-9.225 25.818-21.875m-88.184 80.04l7.723-44.28h-37.026c-12.736 0-23.63 9.239-25.825 21.904l-7.666 44.252h36.975c12.726 0 23.613-9.225 25.819-21.875m-88.546 80.67l7.722-44.28h-37.027c-12.735 0-23.63 9.24-25.823 21.904l-7.668 44.251h36.976c12.726 0 23.613-9.224 25.82-21.874m-88.184 80.04l7.721-44.28h-37.026c-12.735 0-23.63 9.24-25.823 21.904l-7.668 44.251h36.976c12.725 0 23.613-9.223 25.82-21.874m-88.548 80.67l7.722-44.28h-37.027c-12.736 0-23.63 9.24-25.824 21.902l-7.667 44.253h36.976c12.725 0 23.613-9.225 25.82-21.876m-88.549 80.671l7.723-44.28h-37.026c-12.737 0-23.63 9.238-25.825 21.903l-7.666 44.252h36.974c12.727 0 23.615-9.225 25.82-21.875m-87.554 80.405l7.723-44.28h-37.026c-12.737 0-23.63 9.239-25.825 21.903l-7.667 44.252h36.976c12.726 0 23.613-9.225 25.819-21.875m883.032-885.346l7.721-44.281H72.722c-12.737 0-23.63 9.24-25.825 21.904l-7.666 44.251h36.976c12.725 0 23.613-9.223 25.82-21.874m-88.548 80.67l7.722-44.28h-37.026c-12.736 0-23.63 9.24-25.825 21.904l-7.667 44.251h36.976c12.726 0 23.613-9.223 25.82-21.874m-88.548 80.67l7.722-44.281h-37.025c-12.737 0-23.631 9.24-25.824 21.903l-7.668 44.253h36.976c12.725 0 23.613-9.225 25.82-21.875m-88.185 80.04l7.722-44.28h-37.025c-12.737 0-23.632 9.238-25.826 21.903l-7.666 44.252h36.975c12.726 0 23.613-9.224 25.82-21.874m-88.549 80.67l7.724-44.28h-37.027c-12.736 0-23.63 9.24-25.824 21.904l-7.667 44.251h36.976c12.726 0 23.613-9.223 25.818-21.874m-87.554 80.404l7.723-44.281h-37.026c-12.736 0-23.63 9.24-25.825 21.903l-7.666 44.252h36.975c12.726 0 23.613-9.224 25.819-21.874m-88.546 80.67l7.722-44.28h-37.027c-12.735 0-23.63 9.238-25.823 21.903l-7.668 44.252h36.976c12.725 0 23.613-9.225 25.82-21.875m-88.548 80.671l7.722-44.281h-37.026c-12.736 0-23.63 9.24-25.824 21.904l-7.668 44.251h36.976c12.726 0 23.613-9.224 25.82-21.874m-88.184 80.04l7.722-44.28h-37.027c-12.736 0-23.63 9.24-25.824 21.904l-7.667 44.251h36.976c12.725 0 23.613-9.223 25.82-21.874m-88.549 80.67l7.723-44.28h-37.026c-12.737 0-23.63 9.24-25.825 21.902l-7.666 44.253h36.974c12.727 0 23.615-9.225 25.82-21.876m-88.184 80.042l7.723-44.28h-37.026c-12.737 0-23.63 9.238-25.825 21.903l-7.666 44.252h36.975c12.726 0 23.613-9.225 25.819-21.875m-88.548 80.67l7.724-44.28h-37.027c-12.736 0-23.63 9.24-25.823 21.904l-7.668 44.251h36.976c12.726 0 23.613-9.224 25.818-21.874" mask="url(#prefix__c)" opacity=".1" transform="rotate(-20 560.08 212.742)"/>
    </g>
</svg>
