<svg xmlns="http://www.w3.org/2000/svg" width="78" height="50" viewBox="0 0 78 50">
    <defs>
        <linearGradient id="prefix__a" x1="100%" x2="0%" y1="50%" y2="50%">
            <stop offset="0%" stop-color="#5CCE59"/>
            <stop offset="100%" stop-color="#33835C"/>
        </linearGradient>
    </defs>
    <g fill="none" fill-rule="evenodd">
        <path fill="#828386" d="M66.199 45.272l-.922-5.674-3.014 5.674h3.936zm.319 1.915h-5.284l-1.33 2.5h-2.233l6.684-12.411H66.8l2.305 12.41h-2.18l-.408-2.5zm-8.528-3.068c-.585 3.422-3.35 5.798-7.003 5.798-3.936 0-6.187-3.032-5.549-6.666.62-3.581 3.706-6.206 7.358-6.206 2.482 0 4.237 1.17 5.16 3.032l-1.863.975c-.62-1.223-1.702-2.02-3.457-2.02-2.641 0-4.734 1.86-5.177 4.414-.443 2.553.958 4.485 3.706 4.485 2.34 0 3.865-1.17 4.52-2.836h-4.077l.319-1.827h6.205l-.142.851zm-18.828-4.893l-.567 3.227h4.964l-.337 1.914h-4.964l-.603 3.37h5.514l-.355 1.95H35.28l2.181-12.411h7.446l-.336 1.95h-5.408zm-6.719 10.46h-2.039l1.56-8.829-4.893 6.223h-.248l-2.642-6.4-1.578 9.006h-2.038l2.18-12.41h2.145l2.553 6.294 4.858-6.294h2.323l-2.181 12.41zm-15.07-6.17c.444-2.552-1.116-4.485-3.652-4.485-2.517 0-4.68 1.897-5.123 4.45-.443 2.553 1.063 4.45 3.58 4.45 2.536 0 4.735-1.861 5.196-4.414zM6.56 43.305c.638-3.6 3.687-6.259 7.482-6.259 3.58 0 5.992 3.05 5.372 6.649-.656 3.6-3.688 6.223-7.5 6.223-3.581 0-5.992-3.014-5.354-6.613z"/>
        <path fill="url(#prefix__a)" d="M72.672 0c-1.775 0-3.294 1.276-3.6 3.024l-5.168 29.472h5.164c1.776 0 3.294-1.276 3.6-3.025L77.838 0h-5.165zM60.994 0c-1.776 0-3.294 1.276-3.601 3.024l-5.168 29.472h5.165c1.775 0 3.294-1.276 3.6-3.025L66.159 0h-5.164zM49.317 0c-1.776 0-3.295 1.276-3.601 3.026l-1.07 6.113h5.157c1.774 0 3.293-1.274 3.6-3.021L54.48 0h-5.163zM17.069 0c-1.776 0-3.294 1.276-3.6 3.024L11.11 16.473l5.281 14.558c.336-.448.573-.977.675-1.56L22.234 0h-5.165zm30.292 11.17c-1.775 0-3.293 1.276-3.6 3.024l-3.214 18.302h5.164c1.776 0 3.295-1.277 3.6-3.026l3.203-18.3H47.36zm-10.298 0c-1.776 0-3.295 1.277-3.601 3.026l-1.069 6.114h5.156c1.775 0 3.293-1.274 3.6-3.022l1.077-6.118h-5.163zm-10.273 0c-1.776 0-3.294 1.276-3.601 3.024l-3.214 18.302 5.167-.004c1.775-.002 3.293-1.278 3.599-3.026l3.201-18.296H26.79z"/>
        <path fill="#5CCE59" d="M7.069 5.331h-3.41c-2.536 0-4.302 2.52-3.437 4.903L8.3 32.496h5.165c1.184 0 2.254-.568 2.926-1.465L7.069 5.33z"/>
    </g>
</svg>
