<svg xmlns="http://www.w3.org/2000/svg" width="260" height="162" viewBox="0 0 260 162">
    <defs>
        <linearGradient id="prefix__a" x1="0%" x2="100%" y1="50.005%" y2="50.005%">
            <stop offset="0%" stop-color="#31835C"/>
            <stop offset="100%" stop-color="#6CB659"/>
        </linearGradient>
    </defs>
    <g fill="none">
        <path fill="#FFF" d="M259.28.375H62.541C43.118.375 26.497 14.33 23.124 33.47L.62 161.2H197.36c19.423 0 36.044-13.953 39.417-33.095L259.28.375z"/>
        <path fill="#818286" d="M49.12 125.913c1.528-9.094 9.325-15.719 18.407-15.64 8.81 0 14.743 7.611 13.216 16.613-1.615 8.995-9.072 15.551-18.451 15.551-8.8 0-14.743-7.53-13.172-16.524zm26.613.525c1.093-6.378-2.747-11.207-8.984-11.207-6.201 0-11.513 4.74-12.604 11.12-1.09 6.38 2.615 11.12 8.811 11.12 6.227.006 11.637-4.648 12.77-11.028l.007-.005zm37.072 15.42h-5.023l3.845-22.071-12.038 15.55h-.623l-6.498-15.991-3.876 22.506h-5.015l5.364-30.989h5.276l6.281 15.727 11.95-15.727h5.716l-5.36 30.994zm16.536-26.142l-1.395 8.066h12.21l-.829 4.784h-12.223l-1.484 8.417h13.565l-.873 4.874h-18.536l5.364-30.994h18.319l-.827 4.858-13.29-.005zm46.307 12.233c-1.44 8.551-8.245 14.488-17.23 14.488-9.683 0-15.22-7.574-13.652-16.658 1.503-8.962 9.152-15.515 18.102-15.506 6.106 0 10.423 2.924 12.692 7.577l-4.581 2.436c-1.525-3.058-4.186-5.05-8.504-5.05-6.498 0-11.645 4.65-12.735 11.023-1.09 6.373 2.354 11.21 9.116 11.21 5.756 0 9.508-2.924 11.11-7.087h-10.023l.775-4.564h15.265l-.335 2.131zm20.985 7.667h-13.007l-3.27 6.246h-5.497l16.444-30.999h6.02l5.669 31.012h-5.364l-.995-6.26zm-.775-4.785l-2.269-14.173-7.415 14.173h9.684z"/>
        <path fill="url(#prefix__a)" d="M211.38 19.138h12.736l-12.744 72.93c-.756 4.327-4.5 7.483-8.877 7.483H189.76l12.741-72.92c.753-4.33 4.498-7.491 8.878-7.493zm-28.795 0h12.736l-12.743 72.93c-.756 4.327-4.5 7.483-8.878 7.483h-12.733l12.741-72.92c.752-4.33 4.497-7.491 8.877-7.493zm-48.929 42.786l2.655-15.138H123.58c-4.379 0-8.125 3.158-8.877 7.487L112.066 69.4h12.713c4.375 0 8.118-3.153 8.877-7.476zm6.438-7.656l-7.921 45.283h12.73c4.378 0 8.124-3.157 8.878-7.485l7.895-45.28h-12.704c-4.377 0-8.122 3.155-8.878 7.482zm-50.723 0L81.449 99.55h12.738c4.376-.003 8.118-3.16 8.873-7.485l7.893-45.27H98.25c-4.375-.001-8.119 3.15-8.88 7.472zm74.499-19.984l2.654-15.146h-12.73c-4.38 0-8.124 3.159-8.878 7.487l-2.636 15.127h12.713c4.372.002 8.115-3.147 8.877-7.468zM87.017 19.138H74.28c-4.378.001-8.122 3.158-8.878 7.485L59.59 59.886l13.02 36.042c.85-1.137 1.42-2.46 1.663-3.86l12.744-72.93zm145.839 7.313c-1.475.001-2.805-.89-3.37-2.257-.563-1.367-.25-2.941.793-3.987 1.043-1.045 2.612-1.357 3.973-.788 1.362.568 2.248 1.904 2.245 3.383-.002 2.018-1.63 3.654-3.641 3.657v-.008zm0-6.57c-1.603 0-2.902 1.303-2.903 2.911-.002 1.608 1.295 2.913 2.898 2.916 1.602.003 2.903-1.298 2.908-2.906-.002-1.608-1.3-2.911-2.903-2.913v-.008zm-.2 2.636c.156.012.312-.03.44-.12.18-.219.18-.535 0-.754-.13-.084-.285-.124-.44-.111h-.414v.985h.414m-.414.678v1.447h-.984v-3.835h1.502c.385-.03.77.061 1.1.26.248.189.38.492.353.803.01.222-.055.44-.182.623-.141.175-.334.3-.551.356.138.034.264.107.362.21.134.146.242.313.322.494l.536 1.084h-1.036l-.466-.951c-.064-.15-.161-.284-.285-.39-.113-.075-.248-.113-.384-.106h-.277"/>
        <path fill="#6CB659" d="M50.12 32.54h-8.366c-2.924 0-5.665 1.434-7.344 3.842-1.678 2.407-2.084 5.487-1.087 8.25l19.82 54.919h12.67c2.825 0 5.486-1.338 7.179-3.612L50.12 32.54z"/>
    </g>
</svg>
