<svg xmlns="http://www.w3.org/2000/svg" xmlns:xlink="http://www.w3.org/1999/xlink" width="1440" height="630" viewBox="0 0 1440 630">
    <defs>
        <linearGradient id="prefix__b" x1="100%" x2="0%" y1="50%" y2="50%">
            <stop offset="0%" stop-color="#5CCE59"/>
            <stop offset="100%" stop-color="#33835C"/>
        </linearGradient>
        <linearGradient id="prefix__c" x1="31.894%" x2="65.293%" y1="48.228%" y2="51.879%">
            <stop offset="0%" stop-color="#5CCE59"/>
            <stop offset="100%" stop-color="#33835C"/>
        </linearGradient>
        <path id="prefix__a" d="M0 0L1440 0 1440 630 0 630z"/>
    </defs>
    <g fill="none" fill-rule="evenodd">
        <mask id="prefix__d" fill="#fff">
            <use xlink:href="#prefix__a"/>
        </mask>
        <use fill="url(#prefix__b)" xlink:href="#prefix__a"/>
        <path fill="url(#prefix__c)" d="M2812.173-300.538l10.624-60.911h-50.932c-17.52 0-32.504 12.711-35.523 30.13l-10.545 60.87h50.862c17.503 0 32.48-12.687 35.514-30.09m-121.798 110.967l10.62-60.911h-50.932c-17.518 0-32.503 12.711-35.522 30.13l-10.546 60.87h50.863c17.505 0 32.482-12.687 35.517-30.09m-121.304 110.1l10.623-60.91h-50.931c-17.518 0-32.505 12.71-35.522 30.129l-10.547 60.87h50.862c17.505 0 32.48-12.688 35.515-30.089m-121.8 110.966l10.622-60.91h-50.931c-17.519 0-32.505 12.708-35.522 30.129l-10.547 60.87h50.862c17.505 0 32.48-12.688 35.516-30.089m-121.301 110.1l10.622-60.91h-50.933c-17.518 0-32.503 12.71-35.522 30.13l-10.545 60.87h50.86c17.506 0 32.482-12.687 35.518-30.09M2204.167 252.56l10.623-60.91h-50.93c-17.52 0-32.505 12.71-35.524 30.128l-10.546 60.872h50.862c17.503 0 32.481-12.69 35.515-30.09m-121.801 110.966l10.623-60.91h-50.931c-17.52 0-32.505 12.708-35.523 30.129l-10.546 60.87h50.862c17.503 0 32.48-12.688 35.515-30.09m-120.434 110.601l10.622-60.91h-50.931c-17.52 0-32.505 12.71-35.522 30.13l-10.547 60.87h50.862c17.504 0 32.48-12.69 35.516-30.09m-121.801 110.966l10.622-60.91h-50.932c-17.518 0-32.503 12.71-35.521 30.13l-10.547 60.87h50.863c17.503 0 32.48-12.687 35.515-30.09M1718.829 695.19l10.622-60.91h-50.93c-17.52 0-32.504 12.712-35.522 30.13l-10.548 60.87h50.864c17.503 0 32.48-12.688 35.514-30.09m-121.801 110.967l10.622-60.91h-50.93c-17.52 0-32.506 12.708-35.524 30.129l-10.546 60.87h50.863c17.503 0 32.481-12.688 35.515-30.09m-121.801 110.967l10.622-60.91h-50.931c-17.52 0-32.505 12.709-35.524 30.13l-10.545 60.87h50.862c17.504 0 32.48-12.69 35.516-30.09M2689.876-300.71l10.622-60.91h-50.932c-17.52 0-32.504 12.71-35.522 30.13l-10.546 60.87h50.863c17.505 0 32.481-12.688 35.515-30.09m-120.437 110.6l10.624-60.91h-50.931c-17.52 0-32.505 12.71-35.524 30.13l-10.545 60.87h50.862c17.503 0 32.48-12.688 35.514-30.09M2447.638-79.145l10.624-60.91h-50.932c-17.52 0-32.504 12.709-35.521 30.129l-10.547 60.87h50.861c17.505 0 32.481-12.689 35.515-30.09m-121.8 110.967l10.622-60.91h-50.931c-17.52 0-32.503 12.707-35.521 30.129l-10.548 60.87h50.862c17.505 0 32.48-12.689 35.516-30.09m-121.3 110.101l10.621-60.91h-50.93c-17.52 0-32.504 12.71-35.523 30.13l-10.547 60.87h50.864c17.503 0 32.48-12.688 35.514-30.09m-121.801 110.966l10.622-60.91h-50.93c-17.521 0-32.506 12.71-35.525 30.128l-10.545 60.871h50.862c17.504 0 32.482-12.689 35.516-30.089m-121.301 110.1l10.621-60.91h-50.93c-17.52 0-32.505 12.707-35.524 30.128l-10.546 60.871h50.862c17.505 0 32.481-12.689 35.517-30.09m-121.802 110.967l10.622-60.91h-50.931c-17.518 0-32.505 12.709-35.523 30.13l-10.546 60.87h50.862c17.505 0 32.48-12.69 35.516-30.09m-121.8 110.966l10.62-60.91h-50.929c-17.52 0-32.506 12.71-35.523 30.13l-10.547 60.87h50.862c17.505 0 32.48-12.688 35.516-30.09m-120.435 110.598l10.622-60.909h-50.93c-17.521 0-32.506 12.711-35.525 30.129l-10.545 60.871h50.86c17.506 0 32.482-12.689 35.518-30.09m-121.803 110.966l10.623-60.91h-50.93c-17.52 0-32.505 12.708-35.524 30.13l-10.546 60.87h50.862c17.505 0 32.481-12.689 35.515-30.09m-121.3 110.1l10.622-60.91h-50.931c-17.519 0-32.505 12.71-35.523 30.13l-10.546 60.87h50.862c17.505 0 32.48-12.689 35.516-30.09M2568.442-300.382l10.623-60.911h-50.93c-17.52 0-32.504 12.711-35.523 30.13l-10.547 60.87h50.863c17.503 0 32.479-12.687 35.514-30.09m-121.3 110.1l10.622-60.91h-50.93c-17.52 0-32.505 12.711-35.524 30.13l-10.546 60.87h50.863c17.503 0 32.481-12.687 35.515-30.09M2325.341-79.317l10.622-60.91h-50.931c-17.52 0-32.505 12.71-35.524 30.13l-10.545 60.87h50.862c17.504 0 32.48-12.69 35.516-30.09m-120.435 110.6l10.622-60.91h-50.93c-17.52 0-32.506 12.708-35.523 30.129l-10.547 60.87h50.861c17.505 0 32.481-12.688 35.517-30.089m-121.802 110.967l10.622-60.911h-50.93c-17.52 0-32.505 12.711-35.524 30.13l-10.546 60.87h50.861c17.505 0 32.482-12.687 35.517-30.09m-121.302 110.1l10.623-60.91h-50.931c-17.52 0-32.505 12.71-35.523 30.128l-10.546 60.872h50.862c17.505 0 32.479-12.69 35.515-30.09m-121.8 110.966l10.622-60.91h-50.932c-17.518 0-32.504 12.708-35.523 30.129l-10.545 60.87h50.862c17.504 0 32.48-12.688 35.516-30.089m-121.801 110.967l10.622-60.911h-50.932c-17.518 0-32.504 12.71-35.521 30.13l-10.547 60.87h50.861c17.505 0 32.481-12.69 35.517-30.09m-121.302 110.1l10.622-60.91h-50.932c-17.519 0-32.505 12.71-35.522 30.13l-10.546 60.87h50.861c17.505 0 32.482-12.687 35.517-30.09m-121.803 110.965l10.624-60.91h-50.931c-17.52 0-32.505 12.712-35.523 30.13l-10.546 60.87h50.86c17.505 0 32.483-12.688 35.516-30.09m-121.3 110.1l10.623-60.91h-50.932c-17.52 0-32.504 12.709-35.523 30.13l-10.545 60.87h50.862c17.504 0 32.48-12.688 35.514-30.09M1232.86 916.913l10.623-60.91h-50.93c-17.52 0-32.505 12.71-35.522 30.13l-10.548 60.87h50.862c17.505 0 32.481-12.69 35.515-30.09M2447.51-300.922l10.623-60.91h-50.93c-17.521 0-32.506 12.71-35.525 30.13l-10.545 60.87h50.862c17.504 0 32.48-12.688 35.516-30.09M2325.71-189.956l10.621-60.91h-50.93c-17.52 0-32.505 12.71-35.524 30.13l-10.546 60.87h50.862c17.505 0 32.481-12.688 35.517-30.09m-121.302 110.1l10.622-60.91H2164.1c-17.518 0-32.505 12.71-35.522 30.129l-10.547 60.87h50.862c17.505 0 32.48-12.689 35.516-30.09M2082.607 31.11l10.622-60.91h-50.932c-17.519 0-32.505 12.707-35.522 30.129l-10.546 60.87h50.86c17.506 0 32.482-12.689 35.518-30.09M1961.67 142.577l10.624-60.91h-50.932c-17.52 0-32.504 12.71-35.523 30.13l-10.545 60.87h50.86c17.505 0 32.48-12.688 35.516-30.09m-121.301 110.1l10.623-60.91h-50.93c-17.52 0-32.505 12.71-35.524 30.128l-10.546 60.871h50.862c17.505 0 32.481-12.689 35.515-30.089m-121.801 110.966l10.623-60.91h-50.931c-17.52 0-32.505 12.707-35.522 30.129l-10.547 60.87h50.862c17.505 0 32.48-12.689 35.515-30.09m-121.302 110.101l10.624-60.91h-50.931c-17.52 0-32.505 12.709-35.522 30.13l-10.547 60.87h50.862c17.504 0 32.48-12.69 35.514-30.09m-121.8 110.966l10.623-60.91h-50.932c-17.518 0-32.503 12.71-35.521 30.13l-10.547 60.87h50.861c17.505 0 32.483-12.688 35.517-30.09m-121.802 110.964l10.622-60.909h-50.932c-17.519 0-32.503 12.711-35.522 30.129l-10.546 60.871h50.863c17.503 0 32.481-12.689 35.515-30.09m-121.302 110.1l10.623-60.91h-50.931c-17.52 0-32.505 12.708-35.523 30.13l-10.546 60.87h50.862c17.503 0 32.48-12.689 35.515-30.09M1110.56 916.74l10.624-60.91h-50.932c-17.52 0-32.504 12.709-35.523 30.13l-10.545 60.87h50.862c17.503 0 32.48-12.69 35.514-30.09M2326.077-300.594l10.623-60.911h-50.931c-17.52 0-32.505 12.711-35.523 30.13l-10.546 60.87h50.86c17.507 0 32.483-12.687 35.517-30.09m-121.802 110.967l10.624-60.911h-50.932c-17.52 0-32.504 12.711-35.52 30.13l-10.548 60.87h50.862c17.504 0 32.48-12.687 35.514-30.09m-121.301 110.1l10.624-60.91h-50.932c-17.52 0-32.504 12.71-35.521 30.13l-10.547 60.87h50.861c17.505 0 32.481-12.69 35.515-30.09m-121.8 110.966l10.622-60.91h-50.931c-17.518 0-32.503 12.708-35.521 30.13l-10.548 60.87h50.862c17.505 0 32.48-12.69 35.516-30.09m-121.301 110.1l10.622-60.91h-50.932c-17.519 0-32.504 12.711-35.522 30.13l-10.546 60.87h50.863c17.503 0 32.481-12.687 35.515-30.09m-121.801 110.967l10.622-60.911h-50.93c-17.521 0-32.506 12.711-35.525 30.129l-10.545 60.87h50.862c17.504 0 32.482-12.688 35.516-30.088m-120.937 111.465l10.623-60.91h-50.93c-17.52 0-32.505 12.708-35.524 30.13l-10.546 60.87h50.862c17.503 0 32.481-12.69 35.515-30.09m-121.3 110.1l10.622-60.91h-50.931c-17.52 0-32.505 12.71-35.522 30.13l-10.547 60.87h50.862c17.505 0 32.48-12.689 35.516-30.09m-121.8 110.967l10.62-60.911h-50.93c-17.519 0-32.503 12.711-35.522 30.13l-10.547 60.87h50.863c17.504 0 32.48-12.687 35.515-30.09m-121.301 110.099l10.622-60.91h-50.93c-17.52 0-32.504 12.712-35.523 30.13l-10.547 60.87h50.863c17.503 0 32.481-12.688 35.515-30.09M1110.93 806.1l10.623-60.91h-50.93c-17.521 0-32.505 12.708-35.524 30.129l-10.546 60.87h50.862c17.503 0 32.481-12.688 35.515-30.089m-121.8 110.967l10.622-60.911h-50.931c-17.52 0-32.505 12.71-35.523 30.13l-10.546 60.87h50.862c17.505 0 32.48-12.69 35.516-30.09M2204.645-300.266l10.622-60.91h-50.93c-17.52 0-32.505 12.71-35.524 30.13l-10.546 60.87h50.863c17.503 0 32.481-12.688 35.515-30.09m-121.302 110.1l10.623-60.91h-50.931c-17.52 0-32.505 12.71-35.523 30.13l-10.546 60.87h50.862c17.503 0 32.48-12.688 35.515-30.09M1961.543-79.2l10.622-60.91h-50.931c-17.52 0-32.505 12.71-35.522 30.129l-10.547 60.87h50.862c17.504 0 32.48-12.689 35.516-30.09M1839.742 31.766l10.622-60.91h-50.932c-17.518 0-32.503 12.707-35.521 30.129l-10.547 60.87h50.863c17.503 0 32.48-12.689 35.515-30.09M1718.44 141.866l10.622-60.91h-50.93c-17.52 0-32.504 12.71-35.522 30.13l-10.548 60.87h50.864c17.503 0 32.48-12.688 35.514-30.09m-121.803 110.966l10.624-60.91h-50.931c-17.52 0-32.505 12.71-35.523 30.128l-10.546 60.871h50.862c17.503 0 32.48-12.688 35.514-30.089m-121.3 110.1l10.623-60.91h-50.932c-17.52 0-32.504 12.707-35.523 30.129l-10.545 60.87h50.862c17.504 0 32.48-12.689 35.516-30.09m-121.801 110.967l10.621-60.91h-50.93c-17.52 0-32.505 12.709-35.524 30.13l-10.545 60.87h50.861c17.505 0 32.481-12.69 35.517-30.09M1232.6 585.363l10.622-60.91h-50.93c-17.52 0-32.506 12.71-35.522 30.13l-10.548 60.87h50.862c17.505 0 32.48-12.688 35.516-30.09m-121.303 110.098l10.624-60.909h-50.931c-17.52 0-32.507 12.711-35.523 30.129l-10.546 60.871h50.86c17.505 0 32.48-12.689 35.516-30.09m-121.8 110.967l10.623-60.91h-50.932c-17.52 0-32.504 12.707-35.523 30.129l-10.545 60.87h50.862c17.504 0 32.48-12.689 35.514-30.09M868.196 916.53l10.623-60.91h-50.93c-17.52 0-32.505 12.709-35.524 30.13l-10.546 60.87h50.862c17.505 0 32.481-12.69 35.515-30.09m1214.15-1216.968l10.623-60.91h-50.93c-17.521 0-32.506 12.71-35.525 30.13l-10.545 60.87h50.862c17.504 0 32.482-12.688 35.516-30.09m-120.435 110.6l10.621-60.91h-50.93c-17.52 0-32.505 12.71-35.524 30.13l-10.546 60.87h50.862c17.505 0 32.481-12.688 35.517-30.09M1840.11-78.874l10.622-60.91h-50.931c-17.518 0-32.505 12.71-35.523 30.13l-10.546 60.87h50.862c17.505 0 32.48-12.689 35.516-30.09m-121.3 110.1l10.62-60.91h-50.929c-17.52 0-32.506 12.708-35.523 30.13l-10.547 60.87h50.862c17.505 0 32.48-12.69 35.516-30.09m-121.803 110.967l10.624-60.911h-50.932c-17.52 0-32.506 12.711-35.523 30.13l-10.545 60.87h50.86c17.505 0 32.48-12.687 35.516-30.09m-121.301 110.1l10.623-60.91h-50.93c-17.521 0-32.505 12.711-35.524 30.129l-10.546 60.871h50.862c17.505 0 32.481-12.689 35.515-30.09m-121.801 110.966l10.623-60.91h-50.931c-17.519 0-32.505 12.708-35.523 30.13l-10.546 60.87h50.862c17.505 0 32.48-12.69 35.515-30.09m-121.8 110.967l10.622-60.911h-50.931c-17.519 0-32.505 12.71-35.522 30.13l-10.547 60.87h50.862c17.504 0 32.48-12.689 35.516-30.09m-121.301 110.1l10.622-60.91h-50.933c-17.518 0-32.505 12.711-35.522 30.13l-10.545 60.87h50.86c17.506 0 32.482-12.687 35.518-30.09M989.866 695.79l10.623-60.91h-50.933c-17.518 0-32.503 12.712-35.521 30.13l-10.546 60.87h50.86c17.505 0 32.483-12.688 35.517-30.09M868.565 805.89l10.623-60.91h-50.931c-17.52 0-32.505 12.708-35.523 30.13l-10.546 60.87h50.862c17.503 0 32.48-12.69 35.515-30.09M746.763 916.857l10.624-60.911h-50.932c-17.52 0-32.504 12.71-35.52 30.13l-10.548 60.87h50.862c17.504 0 32.48-12.689 35.514-30.09m1214.65-1217.834l10.623-60.91h-50.931c-17.52 0-32.505 12.71-35.523 30.13l-10.546 60.87h50.862c17.505 0 32.48-12.688 35.514-30.09m-121.8 110.966l10.623-60.91h-50.932c-17.518 0-32.504 12.71-35.523 30.13l-10.545 60.87h50.862c17.504 0 32.48-12.688 35.514-30.09m-121.3 110.1l10.622-60.91h-50.93c-17.52 0-32.505 12.71-35.522 30.129l-10.548 60.87h50.862c17.505 0 32.481-12.689 35.517-30.09M1597.376 31.555l10.622-60.91h-50.932c-17.519 0-32.505 12.708-35.522 30.129l-10.546 60.87h50.861c17.505 0 32.482-12.689 35.517-30.09M1475.573 142.52l10.624-60.91h-50.933c-17.518 0-32.503 12.71-35.521 30.13l-10.546 60.87h50.86c17.505 0 32.483-12.688 35.516-30.09m-121.3 110.1l10.623-60.91h-50.932c-17.52 0-32.504 12.71-35.523 30.128l-10.545 60.872h50.862c17.503 0 32.48-12.69 35.514-30.09m-121.801 110.966l10.623-60.91h-50.93c-17.52 0-32.505 12.707-35.522 30.129l-10.548 60.87h50.862c17.505 0 32.481-12.689 35.515-30.09M1111.17 473.687l10.623-60.91h-50.931c-17.52 0-32.505 12.709-35.522 30.13l-10.547 60.87h50.862c17.505 0 32.48-12.69 35.515-30.09m-121.8 110.966l10.622-60.91H949.06c-17.519 0-32.503 12.71-35.522 30.13l-10.547 60.87h50.862c17.505 0 32.482-12.688 35.516-30.09M867.569 695.617l10.622-60.91h-50.933c-17.518 0-32.503 12.712-35.522 30.13l-10.545 60.87h50.862c17.504 0 32.482-12.688 35.516-30.09m-121.302 110.1l10.622-60.91h-50.93c-17.52 0-32.505 12.708-35.524 30.13l-10.546 60.87h50.863c17.503 0 32.481-12.689 35.515-30.09M625.331 917.185l10.623-60.91h-50.931c-17.52 0-32.505 12.709-35.523 30.13l-10.546 60.87h50.862c17.503 0 32.48-12.69 35.515-30.09M1839.98-300.65l10.623-60.91h-50.931c-17.52 0-32.504 12.71-35.523 30.13l-10.546 60.87h50.862c17.503 0 32.481-12.688 35.515-30.09m-121.801 110.966l10.623-60.91h-50.931c-17.52 0-32.505 12.71-35.522 30.13l-10.547 60.87h50.862c17.505 0 32.48-12.688 35.515-30.09m-121.302 110.1l10.624-60.91h-50.931c-17.52 0-32.505 12.709-35.522 30.128l-10.547 60.871h50.862c17.504 0 32.48-12.689 35.514-30.09m-121.8 110.966l10.623-60.91h-50.932c-17.518 0-32.503 12.708-35.521 30.13L1388.7 61.47h50.861c17.505 0 32.483-12.689 35.517-30.09m-121.302 110.1l10.622-60.91h-50.932c-17.519 0-32.503 12.711-35.522 30.13l-10.546 60.87h50.863c17.503 0 32.481-12.687 35.515-30.09m-120.935 111.467l10.622-60.91h-50.93c-17.52 0-32.506 12.71-35.524 30.128l-10.546 60.871h50.863c17.503 0 32.481-12.689 35.515-30.09m-121.803 110.966l10.624-60.91h-50.932c-17.52 0-32.504 12.708-35.523 30.13l-10.545 60.87h50.862c17.503 0 32.48-12.689 35.514-30.09m-121.3 110.1l10.622-60.91h-50.93c-17.52 0-32.505 12.71-35.522 30.13l-10.547 60.87h50.861c17.505 0 32.481-12.689 35.517-30.09M867.937 584.98l10.622-60.911h-50.931c-17.518 0-32.503 12.711-35.521 30.13l-10.548 60.87h50.862c17.505 0 32.48-12.687 35.516-30.09m-121.3 110.099l10.621-60.909h-50.93c-17.52 0-32.504 12.711-35.523 30.129l-10.547 60.871h50.863c17.504 0 32.48-12.689 35.515-30.091M624.833 806.045l10.624-60.91h-50.932c-17.52 0-32.504 12.708-35.523 30.13l-10.545 60.87h50.862c17.503 0 32.48-12.69 35.514-30.09m-121.8 110.967l10.622-60.911h-50.93c-17.52 0-32.505 12.71-35.524 30.13l-10.546 60.87h50.862c17.505 0 32.481-12.689 35.517-30.09M1718.549-300.322l10.622-60.91h-50.93c-17.521 0-32.506 12.71-35.525 30.13l-10.545 60.87h50.862c17.504 0 32.482-12.687 35.516-30.09m-121.303 110.1l10.623-60.91h-50.93c-17.52 0-32.505 12.71-35.524 30.13l-10.546 60.87h50.862c17.503 0 32.481-12.687 35.515-30.09m-121.8 110.966l10.622-60.91h-50.931c-17.52 0-32.505 12.71-35.522 30.129l-10.547 60.87h50.862c17.505 0 32.48-12.688 35.516-30.09M1353.645 31.71l10.622-60.91h-50.931c-17.519 0-32.503 12.708-35.522 30.129l-10.547 60.87h50.862c17.504 0 32.48-12.688 35.516-30.09M1232.344 141.81l10.622-60.91h-50.93c-17.52 0-32.505 12.71-35.523 30.13l-10.547 60.87h50.863c17.503 0 32.48-12.688 35.515-30.09M1110.54 252.775l10.623-60.91h-50.931c-17.52 0-32.504 12.71-35.523 30.128l-10.546 60.872h50.862c17.503 0 32.481-12.69 35.515-30.09m-121.3 110.1l10.622-60.91h-50.931c-17.52 0-32.505 12.708-35.523 30.129l-10.546 60.87h50.862c17.505 0 32.48-12.689 35.516-30.09M868.306 474.342l10.622-60.91h-50.931c-17.519 0-32.505 12.709-35.524 30.13l-10.545 60.87h50.862c17.504 0 32.48-12.69 35.516-30.09m-121.301 110.1l10.622-60.91h-50.93c-17.52 0-32.506 12.71-35.523 30.13l-10.547 60.87h50.861c17.505 0 32.481-12.688 35.517-30.09M625.202 695.406l10.623-60.91h-50.931c-17.52 0-32.505 12.712-35.523 30.13l-10.546 60.87h50.86c17.505 0 32.481-12.688 35.517-30.09M503.4 806.373l10.624-60.91h-50.931c-17.52 0-32.505 12.707-35.523 30.129l-10.546 60.87h50.862c17.505 0 32.48-12.689 35.514-30.09M382.1 916.474l10.623-60.91H341.79c-17.52 0-32.504 12.709-35.523 30.13l-10.545 60.87h50.862c17.504 0 32.48-12.69 35.514-30.09M1597.614-300.86l10.624-60.91h-50.931c-17.52 0-32.505 12.71-35.523 30.13l-10.546 60.87h50.862c17.503 0 32.48-12.688 35.514-30.09m-121.8 110.966l10.623-60.91h-50.932c-17.52 0-32.504 12.71-35.523 30.13l-10.545 60.87h50.862c17.504 0 32.48-12.688 35.516-30.09M1354.014-78.93l10.621-60.91h-50.93c-17.52 0-32.505 12.71-35.524 30.13l-10.546 60.87h50.862c17.505 0 32.481-12.689 35.517-30.09m-121.302 110.1l10.622-60.91h-50.93c-17.52 0-32.506 12.708-35.523 30.13l-10.547 60.87h50.862c17.505 0 32.48-12.689 35.516-30.09M1110.91 142.137l10.624-60.91h-50.931c-17.52 0-32.505 12.71-35.523 30.13l-10.546 60.87h50.86c17.505 0 32.48-12.688 35.516-30.09m-121.3 110.1l10.623-60.91H949.3c-17.52 0-32.504 12.71-35.523 30.128l-10.545 60.871h50.862c17.504 0 32.48-12.689 35.514-30.09M867.807 363.203l10.623-60.91H827.5c-17.52 0-32.505 12.708-35.524 30.13l-10.546 60.87h50.862c17.505 0 32.481-12.689 35.515-30.09m-121.8 110.967l10.622-60.91h-50.931c-17.519 0-32.505 12.709-35.522 30.13l-10.547 60.87h50.862c17.505 0 32.48-12.69 35.516-30.09m-120.435 110.6l10.622-60.91h-50.932c-17.519 0-32.504 12.71-35.522 30.13l-10.546 60.87h50.86c17.506 0 32.482-12.688 35.518-30.09M503.769 695.733l10.624-60.909H463.46c-17.519 0-32.503 12.711-35.522 30.129l-10.545 60.871h50.86c17.505 0 32.482-12.689 35.516-30.09m-121.301 110.1l10.623-60.91H342.16c-17.52 0-32.504 12.708-35.523 30.13l-10.546 60.87h50.862c17.503 0 32.481-12.69 35.515-30.09M260.667 916.801l10.623-60.911H220.36c-17.52 0-32.505 12.71-35.522 30.13l-10.547 60.87h50.862c17.505 0 32.48-12.689 35.515-30.09M1475.316-301.032l10.623-60.911h-50.931c-17.52 0-32.504 12.71-35.523 30.13l-10.546 60.87h50.862c17.505 0 32.481-12.687 35.515-30.09m-121.801 110.967l10.623-60.911h-50.931c-17.52 0-32.505 12.71-35.523 30.13l-10.546 60.87H1318c17.505 0 32.48-12.687 35.515-30.09m-120.434 110.6l10.622-60.91h-50.931c-17.519 0-32.505 12.71-35.522 30.129l-10.547 60.87h50.862c17.504 0 32.48-12.688 35.516-30.089M1111.28 31.498l10.622-60.91h-50.933c-17.518 0-32.503 12.708-35.522 30.129l-10.545 60.87h50.86c17.506 0 32.482-12.688 35.518-30.09M989.477 142.465l10.623-60.91h-50.933c-17.518 0-32.503 12.71-35.521 30.13l-10.546 60.87h50.86c17.505 0 32.483-12.687 35.517-30.09m-121.302 110.1l10.624-60.91h-50.931c-17.52 0-32.505 12.71-35.523 30.128l-10.546 60.872h50.862c17.503 0 32.48-12.69 35.514-30.09m-121.8 110.966l10.623-60.91h-50.932c-17.52 0-32.504 12.708-35.521 30.129l-10.547 60.87h50.862c17.504 0 32.48-12.688 35.514-30.09M625.073 473.63l10.623-60.91h-50.93c-17.52 0-32.504 12.71-35.522 30.13l-10.548 60.87h50.862c17.505 0 32.481-12.69 35.515-30.09m-121.8 110.966l10.622-60.91h-50.931c-17.518 0-32.503 12.71-35.522 30.13l-10.547 60.87h50.862c17.505 0 32.483-12.688 35.516-30.09m-121.8 110.965l10.62-60.91h-50.93c-17.519 0-32.503 12.712-35.522 30.13l-10.547 60.87h50.863c17.504 0 32.481-12.688 35.515-30.09m-120.435 110.6l10.622-60.91h-50.93c-17.521 0-32.506 12.709-35.525 30.13l-10.545 60.87h50.862c17.504 0 32.482-12.689 35.516-30.09M139.234 917.129l10.623-60.91h-50.93c-17.52 0-32.505 12.709-35.524 30.13l-10.546 60.87h50.862c17.505 0 32.481-12.69 35.515-30.09m1214.65-1217.834l10.623-60.91h-50.932c-17.52 0-32.504 12.71-35.523 30.13l-10.545 60.87h50.861c17.504 0 32.481-12.688 35.515-30.09M1232.082-189.74l10.623-60.91h-50.93c-17.521 0-32.505 12.71-35.522 30.13l-10.548 60.87h50.862c17.505 0 32.481-12.688 35.515-30.09M1110.78-79.64l10.623-60.91h-50.931c-17.52 0-32.503 12.709-35.522 30.129l-10.547 60.87h50.862c17.505 0 32.48-12.689 35.515-30.09M988.98 31.326l10.622-60.91h-50.931c-17.519 0-32.503 12.708-35.522 30.13l-10.547 60.87h50.862c17.504 0 32.482-12.689 35.516-30.09M868.546 141.926l10.622-60.91h-50.932c-17.518 0-32.503 12.71-35.521 30.13l-10.547 60.87h50.863c17.503 0 32.48-12.688 35.515-30.09M746.744 252.892l10.622-60.91h-50.93c-17.52 0-32.505 12.71-35.524 30.128l-10.546 60.871h50.863c17.503 0 32.481-12.689 35.515-30.089M624.942 363.857l10.623-60.91h-50.931c-17.52 0-32.505 12.708-35.523 30.13l-10.546 60.87h50.862c17.505 0 32.48-12.689 35.515-30.09m-121.3 110.101l10.622-60.91h-50.932c-17.52 0-32.504 12.709-35.523 30.13l-10.545 60.87h50.862c17.504 0 32.48-12.69 35.516-30.09M381.841 584.924l10.622-60.91H341.53c-17.518 0-32.504 12.71-35.521 30.13l-10.547 60.87h50.861c17.505 0 32.481-12.688 35.517-30.09M260.539 695.022l10.622-60.909h-50.93c-17.52 0-32.504 12.711-35.522 30.129l-10.548 60.871h50.864c17.503 0 32.479-12.689 35.514-30.09M138.736 805.988l10.624-60.91H98.429c-17.52 0-32.505 12.708-35.523 30.13l-10.546 60.87h50.862c17.505 0 32.48-12.689 35.514-30.09m-121.8 110.967l10.623-60.91h-50.932c-17.52 0-32.504 12.709-35.523 30.13l-10.545 60.87h50.862c17.504 0 32.48-12.69 35.516-30.09M1232.452-300.378l10.622-60.911h-50.93c-17.52 0-32.506 12.711-35.524 30.13l-10.546 60.87h50.863c17.503 0 32.481-12.687 35.515-30.09m-121.303 110.1l10.624-60.91h-50.932c-17.52 0-32.504 12.711-35.523 30.13l-10.545 60.87h50.862c17.504 0 32.48-12.687 35.514-30.09M989.35-79.312l10.622-60.91h-50.93c-17.52 0-32.505 12.71-35.524 30.13l-10.546 60.87h50.862c17.505 0 32.481-12.69 35.517-30.09M867.548 31.653l10.622-60.91H827.24c-17.518 0-32.505 12.708-35.522 30.129l-10.547 60.87h50.862c17.505 0 32.48-12.688 35.516-30.089m-121.3 110.1l10.62-60.91H705.94c-17.52 0-32.504 12.711-35.523 30.13l-10.547 60.87h50.863c17.504 0 32.48-12.687 35.515-30.09M625.31 253.22l10.624-60.911h-50.932c-17.52 0-32.504 12.71-35.523 30.128l-10.545 60.872h50.862c17.504 0 32.48-12.69 35.514-30.09m-121.3 110.1l10.622-60.91h-50.93c-17.52 0-32.505 12.708-35.524 30.129l-10.546 60.87h50.862c17.505 0 32.481-12.688 35.517-30.089M382.209 474.286l10.622-60.911H341.9c-17.519 0-32.505 12.71-35.522 30.13l-10.547 60.87h50.862c17.505 0 32.48-12.69 35.516-30.09m-121.301 110.1l10.622-60.91h-50.931c-17.519 0-32.505 12.71-35.522 30.13l-10.547 60.87h50.862c17.504 0 32.48-12.687 35.516-30.09M139.105 695.35l10.624-60.91H98.797c-17.52 0-32.504 12.712-35.523 30.13L52.73 725.44h50.86c17.505 0 32.48-12.688 35.516-30.09M17.304 806.317l10.623-60.91h-50.931c-17.52 0-32.505 12.708-35.523 30.129l-10.546 60.87h50.862c17.505 0 32.48-12.688 35.515-30.09m-121.301 110.101l10.623-60.91h-50.931c-17.52 0-32.505 12.71-35.522 30.13l-10.547 60.87h50.862c17.505 0 32.48-12.69 35.515-30.09M1111.518-300.917l10.623-60.91h-50.931c-17.52 0-32.504 12.71-35.523 30.13l-10.546 60.87h50.862c17.505 0 32.481-12.688 35.515-30.09m-121.8 110.966l10.622-60.91H949.41c-17.52 0-32.505 12.71-35.523 30.13l-10.546 60.87h50.862c17.505 0 32.48-12.688 35.516-30.09M867.917-78.985l10.622-60.91h-50.932c-17.518 0-32.504 12.71-35.52 30.129l-10.548 60.87H832.4c17.504 0 32.48-12.689 35.516-30.09m-121.301 110.1l10.622-60.91h-50.932c-17.518 0-32.504 12.708-35.521 30.13l-10.547 60.87h50.861c17.505 0 32.481-12.689 35.517-30.09M624.813 142.082l10.623-60.91h-50.931c-17.52 0-32.505 12.71-35.523 30.13l-10.546 60.87h50.86c17.505 0 32.481-12.688 35.517-30.09m-121.302 110.1l10.624-60.91h-50.931c-17.52 0-32.505 12.71-35.523 30.128l-10.546 60.871h50.862c17.505 0 32.48-12.689 35.514-30.089m-121.8 110.966l10.623-60.91h-50.932c-17.52 0-32.504 12.707-35.521 30.129l-10.547 60.87h50.862c17.504 0 32.48-12.689 35.514-30.09M260.775 474.614l10.623-60.91h-50.93c-17.52 0-32.505 12.709-35.522 30.13l-10.548 60.87h50.862c17.505 0 32.481-12.69 35.515-30.09m-121.3 110.1l10.622-60.91H99.165c-17.519 0-32.503 12.71-35.522 30.13l-10.546 60.87h50.861c17.505 0 32.482-12.688 35.517-30.09M17.674 695.677l10.622-60.909h-50.932c-17.519 0-32.504 12.711-35.522 30.129l-10.546 60.871h50.863c17.503 0 32.481-12.689 35.515-30.09m-121.303 110.1l10.624-60.91h-50.932c-17.52 0-32.504 12.708-35.523 30.13l-10.545 60.87h50.861c17.504 0 32.481-12.689 35.515-30.09M-225.43 916.745l10.623-60.91h-50.93c-17.521 0-32.505 12.709-35.524 30.13l-10.546 60.87h50.862c17.505 0 32.481-12.69 35.515-30.09M989.22-301.089L999.842-362H948.91c-17.52 0-32.504 12.711-35.523 30.13L902.843-271h50.861c17.505 0 32.481-12.687 35.515-30.09M868.284-189.622l10.623-60.911h-50.93c-17.52 0-32.505 12.711-35.522 30.13l-10.548 60.87h50.862c17.505 0 32.481-12.687 35.515-30.09m-121.301 110.1l10.623-60.91h-50.931c-17.519 0-32.505 12.71-35.522 30.13l-10.547 60.87h50.862c17.505 0 32.48-12.69 35.515-30.09m-121.8 110.966l10.622-60.91h-50.932c-17.519 0-32.504 12.708-35.522 30.13l-10.546 60.87h50.86c17.506 0 32.482-12.69 35.518-30.09M503.382 142.41l10.622-60.911H463.07c-17.518 0-32.503 12.711-35.522 30.13l-10.545 60.87h50.862c17.504 0 32.482-12.687 35.516-30.09m-121.303 110.1l10.623-60.91h-50.931c-17.52 0-32.505 12.711-35.523 30.129l-10.546 60.87h50.862c17.503 0 32.48-12.688 35.515-30.088M260.278 363.474l10.623-60.91H219.97c-17.52 0-32.505 12.708-35.522 30.13l-10.547 60.87h50.862c17.503 0 32.48-12.69 35.515-30.09m-121.302 110.1l10.624-60.91H98.668c-17.52 0-32.502 12.71-35.52 30.13L52.6 503.664h50.862c17.504 0 32.48-12.689 35.514-30.09m-121.8 110.967L27.8 523.63h-50.932c-17.52 0-32.503 12.711-35.521 30.13l-10.547 60.87h50.863c17.503 0 32.48-12.687 35.515-30.09M-103.76 696.006l10.622-60.91h-50.93c-17.52 0-32.504 12.712-35.522 30.13l-10.548 60.87h50.864c17.503 0 32.48-12.688 35.514-30.09M-225.06 806.106l10.622-60.91h-50.93c-17.52 0-32.506 12.708-35.524 30.129l-10.546 60.87h50.863c17.503 0 32.481-12.688 35.515-30.089m-121.803 110.967l10.624-60.911h-50.932c-17.52 0-32.504 12.71-35.523 30.13l-10.545 60.87h50.862c17.504 0 32.48-12.69 35.514-30.09M867.787-300.761l10.623-60.91h-50.931c-17.52 0-32.505 12.71-35.523 30.13l-10.546 60.87h50.862c17.503 0 32.48-12.688 35.514-30.09m-121.8 110.966l10.623-60.91h-50.932c-17.52 0-32.504 12.71-35.521 30.13l-10.547 60.87h50.862c17.503 0 32.48-12.688 35.514-30.09m-121.301 110.1l10.623-60.91h-50.93c-17.52 0-32.504 12.71-35.522 30.129l-10.548 60.87h50.862c17.505 0 32.481-12.689 35.515-30.09M503.75 31.77l10.622-60.91h-50.931c-17.52 0-32.503 12.707-35.522 30.129l-10.547 60.87h50.864c17.503 0 32.479-12.689 35.514-30.09M382.45 141.87l10.62-60.91h-50.929c-17.52 0-32.504 12.71-35.523 30.13l-10.547 60.87h50.863c17.504 0 32.481-12.688 35.515-30.09M260.648 252.836l10.622-60.91h-50.93c-17.521 0-32.506 12.71-35.525 30.128l-10.545 60.871h50.862c17.504 0 32.482-12.688 35.516-30.089M138.845 363.802l10.623-60.91h-50.93c-17.521 0-32.505 12.707-35.524 30.129l-10.546 60.87h50.862c17.505 0 32.481-12.689 35.515-30.09m-121.3 110.101l10.622-60.91h-50.931c-17.52 0-32.505 12.709-35.523 30.13l-10.546 60.87h50.862c17.505 0 32.48-12.69 35.516-30.09m-121.801 110.966l10.622-60.91h-50.93c-17.52 0-32.506 12.71-35.523 30.13l-10.547 60.87h50.862c17.504 0 32.48-12.688 35.516-30.09m-121.301 110.098l10.622-60.909h-50.93c-17.521 0-32.506 12.711-35.525 30.129l-10.545 60.871h50.862c17.504 0 32.48-12.689 35.516-30.09M-347.36 805.933l10.623-60.91h-50.931c-17.52 0-32.505 12.707-35.523 30.129l-10.546 60.87h50.862c17.505 0 32.48-12.689 35.515-30.09m-120.434 110.601l10.622-60.91h-50.931c-17.52 0-32.505 12.709-35.523 30.13l-10.546 60.87h50.862c17.505 0 32.48-12.69 35.516-30.09M746.356-300.434l10.621-60.91h-50.93c-17.52 0-32.505 12.71-35.524 30.13l-10.546 60.87h50.863c17.503 0 32.481-12.688 35.515-30.09m-121.303 110.1l10.624-60.91h-50.931c-17.52 0-32.505 12.71-35.523 30.13l-10.546 60.87h50.862c17.505 0 32.48-12.688 35.514-30.09M503.252-79.37l10.623-60.91h-50.932c-17.52 0-32.504 12.71-35.523 30.13l-10.545 60.87h50.862c17.504 0 32.48-12.69 35.516-30.09m-121.301 110.1l10.621-60.91h-50.93c-17.52 0-32.505 12.708-35.522 30.13l-10.548 60.87h50.862c17.505 0 32.481-12.69 35.517-30.09M261.016 142.198l10.622-60.911h-50.93c-17.52 0-32.504 12.711-35.522 30.13l-10.548 60.87h50.864c17.503 0 32.479-12.687 35.514-30.09M139.213 253.165l10.624-60.911H98.906c-17.52 0-32.505 12.711-35.523 30.129l-10.546 60.871h50.862c17.505 0 32.479-12.689 35.514-30.09m-121.3 110.1l10.623-60.91h-50.932c-17.52 0-32.504 12.708-35.523 30.13l-10.545 60.87h50.862c17.504 0 32.48-12.69 35.516-30.09M-103.887 474.23l10.621-60.911h-50.93c-17.52 0-32.505 12.71-35.522 30.13l-10.548 60.87h50.862c17.505 0 32.481-12.689 35.517-30.09m-121.302 110.1l10.622-60.91h-50.932c-17.519 0-32.505 12.711-35.522 30.13l-10.546 60.87h50.861c17.505 0 32.482-12.687 35.517-30.09m-121.803 110.965l10.624-60.91H-387.3c-17.52 0-32.505 12.712-35.524 30.13l-10.545 60.87h50.86c17.505 0 32.48-12.688 35.516-30.09m-121.8 110.967l10.623-60.91h-50.932c-17.52 0-32.504 12.708-35.523 30.13l-10.545 60.87h50.861c17.505 0 32.481-12.69 35.515-30.09m-121.301 110.1l10.623-60.91h-50.931c-17.52 0-32.504 12.71-35.521 30.13l-10.548 60.87h50.862c17.505 0 32.481-12.689 35.515-30.09M625.42-300.972l10.624-60.91h-50.932c-17.52 0-32.504 12.71-35.523 30.13l-10.545 60.87h50.861c17.505 0 32.48-12.688 35.515-30.09m-121.8 110.966l10.622-60.91h-50.93c-17.521 0-32.505 12.71-35.524 30.13l-10.546 60.87h50.862c17.505 0 32.481-12.688 35.517-30.09M381.82-79.04l10.622-60.91h-50.931c-17.519 0-32.505 12.71-35.522 30.129l-10.547 60.87h50.862c17.505 0 32.48-12.689 35.516-30.09M260.52 31.059l10.622-60.91H220.21c-17.519 0-32.505 12.709-35.522 30.13l-10.547 60.87h50.862c17.504 0 32.48-12.689 35.516-30.09M138.716 142.026l10.624-60.91H98.408c-17.52 0-32.504 12.71-35.523 30.13l-10.545 60.87h50.86c17.504 0 32.48-12.688 35.516-30.09m-121.301 110.1l10.623-60.91h-50.931c-17.52 0-32.505 12.71-35.523 30.128l-10.546 60.872H-18.1c17.505 0 32.48-12.69 35.515-30.09M-103.52 363.591l10.623-60.91h-50.931c-17.52 0-32.505 12.707-35.522 30.129l-10.547 60.87h50.862c17.505 0 32.48-12.689 35.515-30.09m-121.802 110.967l10.624-60.91h-50.932c-17.518 0-32.504 12.709-35.521 30.13l-10.547 60.87h50.862c17.504 0 32.48-12.69 35.514-30.09m-121.3 110.1l10.623-60.91h-50.932c-17.518 0-32.503 12.71-35.521 30.13L-433 614.747h50.861c17.505 0 32.481-12.688 35.517-30.09m-121.802 110.964l10.622-60.909h-50.932c-17.519 0-32.503 12.712-35.522 30.13l-10.546 60.87h50.863c17.503 0 32.481-12.688 35.515-30.09m-121.303 110.1l10.624-60.91h-50.931c-17.52 0-32.505 12.708-35.523 30.13l-10.546 60.87h50.862c17.503 0 32.48-12.689 35.514-30.09m-121.8 110.967l10.623-60.91h-50.932c-17.52 0-32.504 12.709-35.523 30.13l-10.545 60.87h50.862c17.503 0 32.48-12.69 35.514-30.09M503.988-300.645l10.624-60.91h-50.931c-17.52 0-32.505 12.71-35.523 30.13l-10.546 60.87h50.862c17.505 0 32.48-12.688 35.514-30.09m-121.8 110.966l10.623-60.91h-50.932c-17.52 0-32.504 12.71-35.521 30.13l-10.547 60.87h50.862c17.504 0 32.48-12.688 35.514-30.09M260.886-79.58l10.623-60.91h-50.93c-17.52 0-32.505 12.709-35.522 30.128L174.509-49.49h50.862c17.505 0 32.481-12.689 35.515-30.09m-121.8 110.966l10.622-60.91H98.777c-17.518 0-32.503 12.708-35.522 30.13l-10.547 60.87h50.862c17.505 0 32.48-12.689 35.516-30.09M17.285 142.353l10.622-60.91h-50.932c-17.519 0-32.504 12.71-35.522 30.13l-10.546 60.87h50.863c17.503 0 32.481-12.688 35.515-30.09m-121.303 110.1l10.624-60.91h-50.932c-17.52 0-32.504 12.71-35.523 30.128l-10.545 60.871h50.861c17.504 0 32.481-12.689 35.515-30.09m-121.801 110.966l10.623-60.91h-50.931c-17.52 0-32.504 12.708-35.523 30.13l-10.546 60.87h50.862c17.503 0 32.481-12.69 35.515-30.09m-121.3 110.1l10.622-60.91h-50.931c-17.52 0-32.505 12.71-35.522 30.13l-10.547 60.87h50.862c17.505 0 32.48-12.689 35.516-30.09m-120.935 111.467l10.622-60.911h-50.931c-17.519 0-32.503 12.711-35.522 30.13l-10.547 60.87h50.863c17.503 0 32.48-12.687 35.515-30.09M-589.855 695.95l10.622-60.909h-50.93c-17.52 0-32.505 12.711-35.523 30.129l-10.547 60.871h50.863c17.503 0 32.48-12.689 35.515-30.091M-711.157 806.05l10.622-60.91h-50.93c-17.52 0-32.504 12.708-35.522 30.13l-10.548 60.87h50.864c17.503 0 32.48-12.69 35.514-30.09m-121.801 110.967l10.622-60.911h-50.93c-17.52 0-32.506 12.71-35.524 30.13l-10.546 60.87h50.863c17.503 0 32.481-12.689 35.515-30.09M381.69-300.817l10.623-60.91h-50.931c-17.52 0-32.505 12.71-35.523 30.13l-10.546 60.87h50.862c17.503 0 32.48-12.687 35.515-30.09M260.754-189.352l10.624-60.91h-50.931c-17.52 0-32.505 12.71-35.523 30.13l-10.546 60.87h50.862c17.503 0 32.48-12.687 35.514-30.09m-121.3 110.1l10.623-60.91H99.145c-17.52 0-32.504 12.71-35.521 30.129l-10.547 60.87h50.862c17.504 0 32.48-12.688 35.516-30.09M17.654 31.715l10.621-60.91h-50.93c-17.52 0-32.504 12.708-35.522 30.129l-10.548 60.87h50.864c17.503 0 32.48-12.688 35.515-30.09m-121.302 110.101l10.622-60.91h-50.93c-17.52 0-32.504 12.71-35.523 30.13l-10.547 60.87h50.864c17.503 0 32.48-12.688 35.514-30.09M-225.449 252.78l10.622-60.91h-50.93c-17.52 0-32.506 12.71-35.524 30.128l-10.546 60.872h50.863c17.503 0 32.481-12.69 35.515-30.09M-347.25 363.746l10.622-60.91h-50.932c-17.52 0-32.504 12.708-35.523 30.129l-10.545 60.87h50.862c17.504 0 32.48-12.689 35.516-30.09m-121.301 110.101l10.621-60.91h-50.93c-17.52 0-32.505 12.709-35.524 30.13l-10.546 60.87h50.862c17.505 0 32.481-12.69 35.517-30.09m-121.802 110.966l10.622-60.91h-50.93c-17.52 0-32.506 12.71-35.523 30.13l-10.547 60.87h50.862c17.505 0 32.48-12.688 35.516-30.09m-120.435 110.599l10.622-60.91h-50.93c-17.52 0-32.504 12.712-35.523 30.13l-10.547 60.87h50.862c17.505 0 32.48-12.688 35.516-30.09m-121.801 110.967l10.622-60.91h-50.93c-17.521 0-32.506 12.707-35.525 30.129l-10.545 60.87h50.862c17.504 0 32.48-12.689 35.516-30.09m-121.303 110.101l10.623-60.91H-994.2c-17.52 0-32.504 12.709-35.523 30.13l-10.546 60.87h50.862c17.505 0 32.481-12.69 35.515-30.09M260.258-300.49l10.623-60.91h-50.93c-17.521 0-32.506 12.71-35.525 30.13l-10.545 60.87h50.862c17.504 0 32.482-12.688 35.516-30.09m-121.302 110.1l10.622-60.91H98.648c-17.52 0-32.504 12.71-35.523 30.13L52.579-160.3h50.862c17.505 0 32.481-12.688 35.516-30.09M17.157-79.425l10.621-60.91h-50.931c-17.519 0-32.505 12.71-35.523 30.13l-10.546 60.87h50.862c17.505 0 32.48-12.689 35.516-30.09m-120.435 110.6l10.622-60.91h-50.93c-17.52 0-32.506 12.708-35.523 30.13l-10.547 60.87h50.862c17.504 0 32.48-12.689 35.516-30.09M-225.08 142.142l10.622-60.91h-50.931c-17.52 0-32.507 12.71-35.524 30.13l-10.545 60.87h50.86c17.506 0 32.482-12.688 35.518-30.09m-121.803 110.966l10.623-60.91h-50.931c-17.52 0-32.505 12.71-35.523 30.128l-10.546 60.871h50.862c17.505 0 32.48-12.689 35.515-30.09m-121.302 110.1l10.624-60.91h-50.931c-17.519 0-32.505 12.708-35.523 30.13l-10.546 60.87h50.862c17.505 0 32.48-12.689 35.514-30.09m-121.8 110.967l10.623-60.91h-50.932c-17.518 0-32.504 12.709-35.521 30.13l-10.547 60.87h50.862c17.504 0 32.48-12.69 35.516-30.09m-121.301 110.1l10.621-60.91h-50.93c-17.52 0-32.505 12.71-35.522 30.13l-10.548 60.87h50.862c17.505 0 32.481-12.688 35.517-30.09m-121.802 110.964l10.622-60.909h-50.932c-17.519 0-32.505 12.711-35.522 30.129l-10.546 60.871h50.861c17.505 0 32.482-12.689 35.517-30.09M-954.89 806.204l10.624-60.91h-50.931c-17.52 0-32.505 12.708-35.523 30.13l-10.546 60.87h50.86c17.507 0 32.483-12.69 35.516-30.09m-120.435 110.6l10.624-60.91h-50.932c-17.52 0-32.504 12.71-35.523 30.13l-10.545 60.87h50.862c17.504 0 32.48-12.689 35.514-30.09M139.326-301.027l10.622-60.911H99.017c-17.52 0-32.505 12.71-35.523 30.13l-10.546 60.87h50.862c17.505 0 32.48-12.687 35.516-30.09M17.525-190.061l10.622-60.911h-50.932c-17.518 0-32.504 12.71-35.523 30.13l-10.545 60.87h50.861c17.505 0 32.481-12.687 35.517-30.09M-104.276-79.096l10.621-60.91h-50.93c-17.52 0-32.505 12.71-35.522 30.129l-10.548 60.87h50.862c17.505 0 32.481-12.688 35.517-30.09m-121.302 110.1l10.622-60.91h-50.93c-17.52 0-32.507 12.709-35.524 30.13l-10.546 60.87h50.861c17.505 0 32.482-12.688 35.517-30.09M-347.38 141.97l10.624-60.91h-50.931c-17.52 0-32.505 12.71-35.524 30.13l-10.545 60.87h50.862c17.504 0 32.48-12.687 35.514-30.09m-120.435 110.6l10.624-60.91h-50.932c-17.518 0-32.504 12.71-35.523 30.128l-10.545 60.872h50.861c17.505 0 32.481-12.69 35.515-30.09m-121.8 110.966l10.622-60.91h-50.931c-17.518 0-32.504 12.708-35.521 30.129l-10.548 60.87h50.862c17.505 0 32.481-12.688 35.517-30.09m-121.802 110.967l10.622-60.91h-50.931c-17.519 0-32.505 12.71-35.522 30.13l-10.547 60.87h50.862c17.505 0 32.48-12.69 35.516-30.09m-121.301 110.1l10.622-60.91h-50.932c-17.519 0-32.505 12.71-35.522 30.13l-10.546 60.87h50.86c17.506 0 32.482-12.688 35.518-30.09m-121.803 110.965l10.624-60.91h-50.932c-17.52 0-32.504 12.712-35.523 30.13l-10.545 60.87h50.86c17.506 0 32.482-12.688 35.516-30.09m-121.301 110.1l10.623-60.91h-50.931c-17.52 0-32.505 12.709-35.523 30.13l-10.546 60.87h50.862c17.505 0 32.48-12.689 35.515-30.09m-121.802 110.967l10.624-60.91h-50.931c-17.52 0-32.505 12.709-35.522 30.13l-10.547 60.87h50.862c17.505 0 32.48-12.69 35.514-30.09" mask="url(#prefix__d)" opacity=".1" transform="rotate(-20 769.398 292.637)"/>
    </g>
</svg>
