<svg xmlns="http://www.w3.org/2000/svg" xmlns:xlink="http://www.w3.org/1999/xlink" width="320" height="319" viewBox="0 0 320 319">
    <defs>
        <linearGradient id="prefix__b" x1="100%" x2="0%" y1="50%" y2="50%">
            <stop offset="0%" stop-color="#5CCE59"/>
            <stop offset="100%" stop-color="#33835C"/>
        </linearGradient>
        <linearGradient id="prefix__c" x1="48.904%" x2="53.708%" y1="48.649%" y2="49.22%">
            <stop offset="0%" stop-color="#5CCE59"/>
            <stop offset="100%" stop-color="#33835C"/>
        </linearGradient>
        <path id="prefix__a" d="M0.936 0H1440.936V319H0.936z"/>
    </defs>
    <g fill="none" fill-rule="evenodd" transform="translate(-561)">
        <mask id="prefix__d" fill="#fff">
            <use xlink:href="#prefix__a"/>
        </mask>
        <use fill="url(#prefix__b)" xlink:href="#prefix__a"/>
        <path fill="url(#prefix__c)" d="M2764.173-267.538l10.624-60.911h-50.932c-17.52 0-32.504 12.711-35.523 30.13l-10.545 60.87h50.862c17.503 0 32.48-12.687 35.514-30.09m-121.798 110.967l10.62-60.911h-50.932c-17.518 0-32.503 12.711-35.522 30.13l-10.546 60.87h50.863c17.505 0 32.482-12.687 35.517-30.09m-121.304 110.1l10.623-60.91h-50.931c-17.518 0-32.505 12.71-35.522 30.129l-10.547 60.87h50.862c17.505 0 32.48-12.688 35.515-30.089m-121.8 110.966l10.622-60.91h-50.931c-17.519 0-32.505 12.708-35.522 30.129l-10.547 60.87h50.862c17.505 0 32.48-12.688 35.516-30.089m-121.301 110.1l10.622-60.91h-50.933c-17.518 0-32.503 12.71-35.522 30.13l-10.545 60.87h50.86c17.506 0 32.482-12.687 35.518-30.09M2156.167 285.56l10.623-60.91h-50.93c-17.52 0-32.505 12.71-35.524 30.128l-10.546 60.872h50.862c17.503 0 32.481-12.69 35.515-30.09m-121.801 110.966l10.623-60.91h-50.931c-17.52 0-32.505 12.708-35.523 30.129l-10.546 60.87h50.862c17.503 0 32.48-12.688 35.515-30.09m-120.434 110.601l10.622-60.91h-50.931c-17.52 0-32.505 12.71-35.522 30.13l-10.547 60.87h50.862c17.504 0 32.48-12.69 35.516-30.09m-121.801 110.966l10.622-60.91h-50.932c-17.518 0-32.503 12.71-35.521 30.13l-10.547 60.87h50.863c17.503 0 32.48-12.687 35.515-30.09M1670.829 728.19l10.622-60.91h-50.93c-17.52 0-32.504 12.712-35.522 30.13l-10.548 60.87h50.864c17.503 0 32.48-12.688 35.514-30.09m-121.801 110.967l10.622-60.91h-50.93c-17.52 0-32.506 12.708-35.524 30.129l-10.546 60.87h50.863c17.503 0 32.481-12.688 35.515-30.09m-121.801 110.967l10.622-60.91h-50.931c-17.52 0-32.505 12.709-35.524 30.13l-10.545 60.87h50.862c17.504 0 32.48-12.69 35.516-30.09M2641.876-267.71l10.622-60.91h-50.932c-17.52 0-32.504 12.71-35.522 30.13l-10.546 60.87h50.863c17.505 0 32.481-12.688 35.515-30.09m-120.437 110.6l10.624-60.91h-50.931c-17.52 0-32.505 12.71-35.524 30.13l-10.545 60.87h50.862c17.503 0 32.48-12.688 35.514-30.09M2399.638-46.145l10.624-60.91h-50.932c-17.52 0-32.504 12.709-35.521 30.129l-10.547 60.87h50.861c17.505 0 32.481-12.689 35.515-30.09m-121.8 110.967l10.622-60.91h-50.931c-17.52 0-32.503 12.707-35.521 30.129l-10.548 60.87h50.862c17.505 0 32.48-12.689 35.516-30.09m-121.3 110.101l10.621-60.91h-50.93c-17.52 0-32.504 12.71-35.523 30.13l-10.547 60.87h50.864c17.503 0 32.48-12.688 35.514-30.09m-121.801 110.966l10.622-60.91h-50.93c-17.521 0-32.506 12.71-35.525 30.128l-10.545 60.871h50.862c17.504 0 32.482-12.689 35.516-30.089m-121.301 110.1l10.621-60.91h-50.93c-17.52 0-32.505 12.707-35.524 30.128l-10.546 60.871h50.862c17.505 0 32.481-12.689 35.517-30.09m-121.802 110.967l10.622-60.91h-50.931c-17.518 0-32.505 12.709-35.523 30.13l-10.546 60.87h50.862c17.505 0 32.48-12.69 35.516-30.09m-121.8 110.966l10.62-60.91h-50.929c-17.52 0-32.506 12.71-35.523 30.13l-10.547 60.87h50.862c17.505 0 32.48-12.688 35.516-30.09m-120.435 110.598l10.622-60.909h-50.93c-17.521 0-32.506 12.711-35.525 30.129l-10.545 60.871h50.86c17.506 0 32.482-12.689 35.518-30.09m-121.803 110.966l10.623-60.91h-50.93c-17.52 0-32.505 12.708-35.524 30.13l-10.546 60.87h50.862c17.505 0 32.481-12.689 35.515-30.09m-121.3 110.1l10.622-60.91h-50.931c-17.519 0-32.505 12.71-35.523 30.13l-10.546 60.87h50.862c17.505 0 32.48-12.689 35.516-30.09M2520.442-267.382l10.623-60.911h-50.93c-17.52 0-32.504 12.711-35.523 30.13l-10.547 60.87h50.863c17.503 0 32.479-12.687 35.514-30.09m-121.3 110.1l10.622-60.91h-50.93c-17.52 0-32.505 12.711-35.524 30.13l-10.546 60.87h50.863c17.503 0 32.481-12.687 35.515-30.09M2277.341-46.317l10.622-60.91h-50.931c-17.52 0-32.505 12.71-35.524 30.13l-10.545 60.87h50.862c17.504 0 32.48-12.69 35.516-30.09m-120.435 110.6l10.622-60.91h-50.93c-17.52 0-32.506 12.708-35.523 30.129l-10.547 60.87h50.861c17.505 0 32.481-12.688 35.517-30.089m-121.802 110.967l10.622-60.911h-50.93c-17.52 0-32.505 12.711-35.524 30.13l-10.546 60.87h50.861c17.505 0 32.482-12.687 35.517-30.09m-121.302 110.1l10.623-60.91h-50.931c-17.52 0-32.505 12.71-35.523 30.128l-10.546 60.872h50.862c17.505 0 32.479-12.69 35.515-30.09m-121.8 110.966l10.622-60.91h-50.932c-17.518 0-32.504 12.708-35.523 30.129l-10.545 60.87h50.862c17.504 0 32.48-12.688 35.516-30.089m-121.801 110.967l10.622-60.911h-50.932c-17.518 0-32.504 12.71-35.521 30.13l-10.547 60.87h50.861c17.505 0 32.481-12.69 35.517-30.09m-121.302 110.1l10.622-60.91h-50.932c-17.519 0-32.505 12.71-35.522 30.13l-10.546 60.87h50.861c17.505 0 32.482-12.687 35.517-30.09m-121.803 110.965l10.624-60.91h-50.931c-17.52 0-32.505 12.712-35.523 30.13l-10.546 60.87h50.86c17.505 0 32.483-12.688 35.516-30.09m-121.3 110.1l10.623-60.91h-50.932c-17.52 0-32.504 12.709-35.523 30.13l-10.545 60.87h50.862c17.504 0 32.48-12.688 35.514-30.09M1184.86 949.913l10.623-60.91h-50.93c-17.52 0-32.505 12.71-35.522 30.13l-10.548 60.87h50.862c17.505 0 32.481-12.69 35.515-30.09M2399.51-267.922l10.623-60.91h-50.93c-17.521 0-32.506 12.71-35.525 30.13l-10.545 60.87h50.862c17.504 0 32.48-12.688 35.516-30.09M2277.71-156.956l10.621-60.91h-50.93c-17.52 0-32.505 12.71-35.524 30.13l-10.546 60.87h50.862c17.505 0 32.481-12.688 35.517-30.09m-121.302 110.1l10.622-60.91H2116.1c-17.518 0-32.505 12.71-35.522 30.129l-10.547 60.87h50.862c17.505 0 32.48-12.689 35.516-30.09M2034.607 64.11l10.622-60.91h-50.932c-17.519 0-32.505 12.707-35.522 30.129l-10.546 60.87h50.86c17.506 0 32.482-12.689 35.518-30.09M1913.67 175.577l10.624-60.91h-50.932c-17.52 0-32.504 12.71-35.523 30.13l-10.545 60.87h50.86c17.505 0 32.48-12.688 35.516-30.09m-121.301 110.1l10.623-60.91h-50.93c-17.52 0-32.505 12.71-35.524 30.128l-10.546 60.871h50.862c17.505 0 32.481-12.689 35.515-30.089m-121.801 110.966l10.623-60.91h-50.931c-17.52 0-32.505 12.707-35.522 30.129l-10.547 60.87h50.862c17.505 0 32.48-12.689 35.515-30.09m-121.302 110.101l10.624-60.91h-50.931c-17.52 0-32.505 12.709-35.522 30.13l-10.547 60.87h50.862c17.504 0 32.48-12.69 35.514-30.09m-121.8 110.966l10.623-60.91h-50.932c-17.518 0-32.503 12.71-35.521 30.13l-10.547 60.87h50.861c17.505 0 32.483-12.688 35.517-30.09m-121.802 110.964l10.622-60.909h-50.932c-17.519 0-32.503 12.711-35.522 30.129l-10.546 60.871h50.863c17.503 0 32.481-12.689 35.515-30.09m-121.302 110.1l10.623-60.91h-50.931c-17.52 0-32.505 12.708-35.523 30.13l-10.546 60.87h50.862c17.503 0 32.48-12.689 35.515-30.09M1062.56 949.74l10.624-60.91h-50.932c-17.52 0-32.504 12.709-35.523 30.13l-10.545 60.87h50.862c17.503 0 32.48-12.69 35.514-30.09M2278.077-267.594l10.623-60.911h-50.931c-17.52 0-32.505 12.711-35.523 30.13l-10.546 60.87h50.86c17.507 0 32.483-12.687 35.517-30.09m-121.802 110.967l10.624-60.911h-50.932c-17.52 0-32.504 12.711-35.52 30.13l-10.548 60.87h50.862c17.504 0 32.48-12.687 35.514-30.09m-121.301 110.1l10.624-60.91h-50.932c-17.52 0-32.504 12.71-35.521 30.13l-10.547 60.87h50.861c17.505 0 32.481-12.69 35.515-30.09m-121.8 110.966l10.622-60.91h-50.931c-17.518 0-32.503 12.708-35.521 30.13l-10.548 60.87h50.862c17.505 0 32.48-12.69 35.516-30.09m-121.301 110.1l10.622-60.91h-50.932c-17.519 0-32.504 12.711-35.522 30.13l-10.546 60.87h50.863c17.503 0 32.481-12.687 35.515-30.09m-121.801 110.967l10.622-60.911h-50.93c-17.521 0-32.506 12.711-35.525 30.129l-10.545 60.87h50.862c17.504 0 32.482-12.688 35.516-30.088m-120.937 111.465l10.623-60.91h-50.93c-17.52 0-32.505 12.708-35.524 30.13l-10.546 60.87h50.862c17.503 0 32.481-12.69 35.515-30.09m-121.3 110.1l10.622-60.91h-50.931c-17.52 0-32.505 12.71-35.522 30.13l-10.547 60.87h50.862c17.505 0 32.48-12.689 35.516-30.09m-121.8 110.967l10.62-60.911h-50.93c-17.519 0-32.503 12.711-35.522 30.13l-10.547 60.87h50.863c17.504 0 32.48-12.687 35.515-30.09m-121.301 110.099l10.622-60.91h-50.93c-17.52 0-32.504 12.712-35.523 30.13l-10.547 60.87h50.863c17.503 0 32.481-12.688 35.515-30.09M1062.93 839.1l10.623-60.91h-50.93c-17.521 0-32.505 12.708-35.524 30.129l-10.546 60.87h50.862c17.503 0 32.481-12.688 35.515-30.089m-121.8 110.967l10.622-60.911h-50.931c-17.52 0-32.505 12.71-35.523 30.13l-10.546 60.87h50.862c17.505 0 32.48-12.69 35.516-30.09M2156.645-267.266l10.622-60.91h-50.93c-17.52 0-32.505 12.71-35.524 30.13l-10.546 60.87h50.863c17.503 0 32.481-12.688 35.515-30.09m-121.302 110.1l10.623-60.91h-50.931c-17.52 0-32.505 12.71-35.523 30.13l-10.546 60.87h50.862c17.503 0 32.48-12.688 35.515-30.09M1913.543-46.2l10.622-60.91h-50.931c-17.52 0-32.505 12.71-35.522 30.129l-10.547 60.87h50.862c17.504 0 32.48-12.689 35.516-30.09M1791.742 64.766l10.622-60.91h-50.932c-17.518 0-32.503 12.707-35.521 30.129l-10.547 60.87h50.863c17.503 0 32.48-12.689 35.515-30.09M1670.44 174.866l10.622-60.91h-50.93c-17.52 0-32.504 12.71-35.522 30.13l-10.548 60.87h50.864c17.503 0 32.48-12.688 35.514-30.09m-121.803 110.966l10.624-60.91h-50.931c-17.52 0-32.505 12.71-35.523 30.128l-10.546 60.871h50.862c17.503 0 32.48-12.688 35.514-30.089m-121.3 110.1l10.623-60.91h-50.932c-17.52 0-32.504 12.707-35.523 30.129l-10.545 60.87h50.862c17.504 0 32.48-12.689 35.516-30.09m-121.801 110.967l10.621-60.91h-50.93c-17.52 0-32.505 12.709-35.524 30.13l-10.545 60.87h50.861c17.505 0 32.481-12.69 35.517-30.09M1184.6 618.363l10.622-60.91h-50.93c-17.52 0-32.506 12.71-35.522 30.13l-10.548 60.87h50.862c17.505 0 32.48-12.688 35.516-30.09m-121.303 110.098l10.624-60.909h-50.931c-17.52 0-32.507 12.711-35.523 30.129l-10.546 60.871h50.86c17.505 0 32.48-12.689 35.516-30.09m-121.8 110.967l10.623-60.91h-50.932c-17.52 0-32.504 12.707-35.523 30.129l-10.545 60.87h50.862c17.504 0 32.48-12.689 35.514-30.09M820.196 949.53l10.623-60.91h-50.93c-17.52 0-32.505 12.709-35.524 30.13l-10.546 60.87h50.862c17.505 0 32.481-12.69 35.515-30.09m1214.15-1216.968l10.623-60.91h-50.93c-17.521 0-32.506 12.71-35.525 30.13l-10.545 60.87h50.862c17.504 0 32.482-12.688 35.516-30.09m-120.435 110.6l10.621-60.91h-50.93c-17.52 0-32.505 12.71-35.524 30.13l-10.546 60.87h50.862c17.505 0 32.481-12.688 35.517-30.09M1792.11-45.874l10.622-60.91h-50.931c-17.518 0-32.505 12.71-35.523 30.13l-10.546 60.87h50.862c17.505 0 32.48-12.689 35.516-30.09m-121.3 110.1l10.62-60.91h-50.929c-17.52 0-32.506 12.708-35.523 30.13l-10.547 60.87h50.862c17.505 0 32.48-12.69 35.516-30.09m-121.803 110.967l10.624-60.911h-50.932c-17.52 0-32.506 12.711-35.523 30.13l-10.545 60.87h50.86c17.505 0 32.48-12.687 35.516-30.09m-121.301 110.1l10.623-60.91h-50.93c-17.521 0-32.505 12.711-35.524 30.129l-10.546 60.871h50.862c17.505 0 32.481-12.689 35.515-30.09m-121.801 110.966l10.623-60.91h-50.931c-17.519 0-32.505 12.708-35.523 30.13l-10.546 60.87h50.862c17.505 0 32.48-12.69 35.515-30.09m-121.8 110.967l10.622-60.911h-50.931c-17.519 0-32.505 12.71-35.522 30.13l-10.547 60.87h50.862c17.504 0 32.48-12.689 35.516-30.09m-121.301 110.1l10.622-60.91h-50.933c-17.518 0-32.505 12.711-35.522 30.13l-10.545 60.87h50.86c17.506 0 32.482-12.687 35.518-30.09M941.866 728.79l10.623-60.91h-50.933c-17.518 0-32.503 12.712-35.521 30.13l-10.546 60.87h50.86c17.505 0 32.483-12.688 35.517-30.09M820.565 838.89l10.623-60.91h-50.931c-17.52 0-32.505 12.708-35.523 30.13l-10.546 60.87h50.862c17.503 0 32.48-12.69 35.515-30.09M698.763 949.857l10.624-60.911h-50.932c-17.52 0-32.504 12.71-35.52 30.13l-10.548 60.87h50.862c17.504 0 32.48-12.689 35.514-30.09m1214.65-1217.834l10.623-60.91h-50.931c-17.52 0-32.505 12.71-35.523 30.13l-10.546 60.87h50.862c17.505 0 32.48-12.688 35.514-30.09m-121.8 110.966l10.623-60.91h-50.932c-17.518 0-32.504 12.71-35.523 30.13l-10.545 60.87h50.862c17.504 0 32.48-12.688 35.514-30.09m-121.3 110.1l10.622-60.91h-50.93c-17.52 0-32.505 12.71-35.522 30.129l-10.548 60.87h50.862c17.505 0 32.481-12.689 35.517-30.09M1549.376 64.555l10.622-60.91h-50.932c-17.519 0-32.505 12.708-35.522 30.129l-10.546 60.87h50.861c17.505 0 32.482-12.689 35.517-30.09M1427.573 175.52l10.624-60.91h-50.933c-17.518 0-32.503 12.71-35.521 30.13l-10.546 60.87h50.86c17.505 0 32.483-12.688 35.516-30.09m-121.3 110.1l10.623-60.91h-50.932c-17.52 0-32.504 12.71-35.523 30.128l-10.545 60.872h50.862c17.503 0 32.48-12.69 35.514-30.09m-121.801 110.966l10.623-60.91h-50.93c-17.52 0-32.505 12.707-35.522 30.129l-10.548 60.87h50.862c17.505 0 32.481-12.689 35.515-30.09M1063.17 506.687l10.623-60.91h-50.931c-17.52 0-32.505 12.709-35.522 30.13l-10.547 60.87h50.862c17.505 0 32.48-12.69 35.515-30.09m-121.8 110.966l10.622-60.91H901.06c-17.519 0-32.503 12.71-35.522 30.13l-10.547 60.87h50.862c17.505 0 32.482-12.688 35.516-30.09M819.569 728.617l10.622-60.91h-50.933c-17.518 0-32.503 12.712-35.522 30.13l-10.545 60.87h50.862c17.504 0 32.482-12.688 35.516-30.09m-121.302 110.1l10.622-60.91h-50.93c-17.52 0-32.505 12.708-35.524 30.13l-10.546 60.87h50.863c17.503 0 32.481-12.689 35.515-30.09M577.331 950.185l10.623-60.91h-50.931c-17.52 0-32.505 12.709-35.523 30.13l-10.546 60.87h50.862c17.503 0 32.48-12.69 35.515-30.09M1791.98-267.65l10.623-60.91h-50.931c-17.52 0-32.504 12.71-35.523 30.13l-10.546 60.87h50.862c17.503 0 32.481-12.688 35.515-30.09m-121.801 110.966l10.623-60.91h-50.931c-17.52 0-32.505 12.71-35.522 30.13l-10.547 60.87h50.862c17.505 0 32.48-12.688 35.515-30.09m-121.302 110.1l10.624-60.91h-50.931c-17.52 0-32.505 12.709-35.522 30.128l-10.547 60.871h50.862c17.504 0 32.48-12.689 35.514-30.09m-121.8 110.966l10.623-60.91h-50.932c-17.518 0-32.503 12.708-35.521 30.13L1340.7 94.47h50.861c17.505 0 32.483-12.689 35.517-30.09m-121.302 110.1l10.622-60.91h-50.932c-17.519 0-32.503 12.711-35.522 30.13l-10.546 60.87h50.863c17.503 0 32.481-12.687 35.515-30.09m-120.935 111.467l10.622-60.91h-50.93c-17.52 0-32.506 12.71-35.524 30.128l-10.546 60.871h50.863c17.503 0 32.481-12.689 35.515-30.09m-121.803 110.966l10.624-60.91h-50.932c-17.52 0-32.504 12.708-35.523 30.13l-10.545 60.87h50.862c17.503 0 32.48-12.689 35.514-30.09m-121.3 110.1l10.623-60.91h-50.932c-17.52 0-32.504 12.71-35.521 30.13l-10.547 60.87h50.861c17.505 0 32.481-12.689 35.517-30.09M819.937 617.98l10.622-60.911h-50.931c-17.518 0-32.503 12.711-35.521 30.13l-10.548 60.87h50.862c17.505 0 32.48-12.687 35.516-30.09m-121.3 110.099l10.621-60.909h-50.93c-17.52 0-32.504 12.711-35.523 30.129l-10.547 60.871h50.863c17.504 0 32.48-12.689 35.515-30.091M576.833 839.045l10.624-60.91h-50.932c-17.52 0-32.504 12.708-35.523 30.13l-10.545 60.87h50.862c17.503 0 32.48-12.69 35.514-30.09m-121.8 110.967l10.622-60.911h-50.93c-17.52 0-32.505 12.71-35.524 30.13l-10.546 60.87h50.862c17.505 0 32.481-12.689 35.517-30.09M1670.549-267.322l10.622-60.91h-50.93c-17.521 0-32.506 12.71-35.525 30.13l-10.545 60.87h50.862c17.504 0 32.482-12.687 35.516-30.09m-121.303 110.1l10.623-60.91h-50.93c-17.52 0-32.505 12.71-35.524 30.13l-10.546 60.87h50.862c17.503 0 32.481-12.687 35.515-30.09m-121.8 110.966l10.622-60.91h-50.931c-17.52 0-32.505 12.71-35.522 30.129l-10.547 60.87h50.862c17.505 0 32.48-12.688 35.516-30.09M1305.645 64.71l10.622-60.91h-50.931c-17.519 0-32.503 12.708-35.522 30.129l-10.547 60.87h50.862c17.504 0 32.48-12.688 35.516-30.09M1184.344 174.81l10.622-60.91h-50.93c-17.52 0-32.505 12.71-35.523 30.13l-10.547 60.87h50.863c17.503 0 32.48-12.688 35.515-30.09M1062.54 285.775l10.623-60.91h-50.931c-17.52 0-32.504 12.71-35.523 30.128l-10.546 60.872h50.862c17.503 0 32.481-12.69 35.515-30.09m-121.3 110.1l10.622-60.91h-50.931c-17.52 0-32.505 12.708-35.523 30.129l-10.546 60.87h50.862c17.505 0 32.48-12.689 35.516-30.09M820.306 507.342l10.622-60.91h-50.931c-17.519 0-32.505 12.709-35.524 30.13l-10.545 60.87h50.862c17.504 0 32.48-12.69 35.516-30.09m-121.301 110.1l10.622-60.91h-50.93c-17.52 0-32.506 12.71-35.523 30.13l-10.547 60.87h50.861c17.505 0 32.481-12.688 35.517-30.09M577.202 728.406l10.623-60.91h-50.931c-17.52 0-32.505 12.712-35.523 30.13l-10.546 60.87h50.86c17.505 0 32.481-12.688 35.517-30.09M455.4 839.373l10.624-60.91h-50.931c-17.52 0-32.505 12.707-35.523 30.129l-10.546 60.87h50.862c17.505 0 32.48-12.689 35.514-30.09M334.1 949.474l10.623-60.91H293.79c-17.52 0-32.504 12.709-35.523 30.13l-10.545 60.87h50.862c17.504 0 32.48-12.69 35.514-30.09M1549.614-267.86l10.624-60.91h-50.931c-17.52 0-32.505 12.71-35.523 30.13l-10.546 60.87h50.862c17.503 0 32.48-12.688 35.514-30.09m-121.8 110.966l10.623-60.91h-50.932c-17.52 0-32.504 12.71-35.523 30.13l-10.545 60.87h50.862c17.504 0 32.48-12.688 35.516-30.09M1306.014-45.93l10.621-60.91h-50.93c-17.52 0-32.505 12.71-35.524 30.13l-10.546 60.87h50.862c17.505 0 32.481-12.689 35.517-30.09m-121.302 110.1l10.622-60.91h-50.93c-17.52 0-32.506 12.708-35.523 30.13l-10.547 60.87h50.862c17.505 0 32.48-12.689 35.516-30.09M1062.91 175.137l10.624-60.91h-50.931c-17.52 0-32.505 12.71-35.523 30.13l-10.546 60.87h50.86c17.505 0 32.48-12.688 35.516-30.09m-121.3 110.1l10.623-60.91H901.3c-17.52 0-32.504 12.71-35.523 30.128l-10.545 60.871h50.862c17.504 0 32.48-12.689 35.514-30.09M819.807 396.203l10.623-60.91H779.5c-17.52 0-32.505 12.708-35.524 30.13l-10.546 60.87h50.862c17.505 0 32.481-12.689 35.515-30.09m-121.8 110.967l10.622-60.91h-50.931c-17.519 0-32.505 12.709-35.522 30.13l-10.547 60.87h50.862c17.505 0 32.48-12.69 35.516-30.09m-120.435 110.6l10.622-60.91h-50.932c-17.519 0-32.504 12.71-35.522 30.13l-10.546 60.87h50.86c17.506 0 32.482-12.688 35.518-30.09M455.769 728.733l10.624-60.909H415.46c-17.519 0-32.503 12.711-35.522 30.129l-10.545 60.871h50.86c17.505 0 32.482-12.689 35.516-30.09m-121.301 110.1l10.623-60.91H294.16c-17.52 0-32.504 12.708-35.523 30.13l-10.546 60.87h50.862c17.503 0 32.481-12.69 35.515-30.09M212.667 949.801l10.623-60.911H172.36c-17.52 0-32.505 12.71-35.522 30.13l-10.547 60.87h50.862c17.505 0 32.48-12.689 35.515-30.09M1427.316-268.032l10.623-60.911h-50.931c-17.52 0-32.504 12.71-35.523 30.13l-10.546 60.87h50.862c17.505 0 32.481-12.687 35.515-30.09m-121.801 110.967l10.623-60.911h-50.931c-17.52 0-32.505 12.71-35.523 30.13l-10.546 60.87H1270c17.505 0 32.48-12.687 35.515-30.09m-120.434 110.6l10.622-60.91h-50.931c-17.519 0-32.505 12.71-35.522 30.129l-10.547 60.87h50.862c17.504 0 32.48-12.688 35.516-30.089M1063.28 64.498l10.622-60.91h-50.933c-17.518 0-32.503 12.708-35.522 30.129l-10.545 60.87h50.86c17.506 0 32.482-12.688 35.518-30.09M941.477 175.465l10.623-60.91h-50.933c-17.518 0-32.503 12.71-35.521 30.13l-10.546 60.87h50.86c17.505 0 32.483-12.687 35.517-30.09m-121.302 110.1l10.624-60.91h-50.931c-17.52 0-32.505 12.71-35.523 30.128l-10.546 60.872h50.862c17.503 0 32.48-12.69 35.514-30.09m-121.8 110.966l10.623-60.91h-50.932c-17.52 0-32.504 12.708-35.521 30.129l-10.547 60.87h50.862c17.504 0 32.48-12.688 35.514-30.09M577.073 506.63l10.623-60.91h-50.93c-17.52 0-32.504 12.71-35.522 30.13l-10.548 60.87h50.862c17.505 0 32.481-12.69 35.515-30.09m-121.8 110.966l10.622-60.91h-50.931c-17.518 0-32.503 12.71-35.522 30.13l-10.547 60.87h50.862c17.505 0 32.483-12.688 35.516-30.09m-121.8 110.965l10.62-60.91h-50.93c-17.519 0-32.503 12.712-35.522 30.13l-10.547 60.87h50.863c17.504 0 32.481-12.688 35.515-30.09m-120.435 110.6l10.622-60.91h-50.93c-17.521 0-32.506 12.709-35.525 30.13l-10.545 60.87h50.862c17.504 0 32.482-12.689 35.516-30.09M91.234 950.129l10.623-60.91h-50.93c-17.52 0-32.505 12.709-35.524 30.13l-10.546 60.87H55.72c17.505 0 32.481-12.69 35.515-30.09m1214.65-1217.834l10.623-60.91h-50.932c-17.52 0-32.504 12.71-35.523 30.13l-10.545 60.87h50.861c17.504 0 32.481-12.688 35.515-30.09M1184.082-156.74l10.623-60.91h-50.93c-17.521 0-32.505 12.71-35.522 30.13l-10.548 60.87h50.862c17.505 0 32.481-12.688 35.515-30.09M1062.78-46.64l10.623-60.91h-50.931c-17.52 0-32.503 12.709-35.522 30.129l-10.547 60.87h50.862c17.505 0 32.48-12.689 35.515-30.09M940.98 64.326l10.622-60.91h-50.931c-17.519 0-32.503 12.708-35.522 30.13l-10.547 60.87h50.862c17.504 0 32.482-12.689 35.516-30.09M820.546 174.926l10.622-60.91h-50.932c-17.518 0-32.503 12.71-35.521 30.13l-10.547 60.87h50.863c17.503 0 32.48-12.688 35.515-30.09M698.744 285.892l10.622-60.91h-50.93c-17.52 0-32.505 12.71-35.524 30.128l-10.546 60.871h50.863c17.503 0 32.481-12.689 35.515-30.089M576.942 396.857l10.623-60.91h-50.931c-17.52 0-32.505 12.708-35.523 30.13l-10.546 60.87h50.862c17.505 0 32.48-12.689 35.515-30.09m-121.3 110.101l10.622-60.91h-50.932c-17.52 0-32.504 12.709-35.523 30.13l-10.545 60.87h50.862c17.504 0 32.48-12.69 35.516-30.09M333.841 617.924l10.622-60.91H293.53c-17.518 0-32.504 12.71-35.521 30.13l-10.547 60.87h50.861c17.505 0 32.481-12.688 35.517-30.09M212.539 728.022l10.622-60.909h-50.93c-17.52 0-32.504 12.711-35.522 30.129l-10.548 60.871h50.864c17.503 0 32.479-12.689 35.514-30.09M90.736 838.988l10.624-60.91H50.429c-17.52 0-32.505 12.708-35.523 30.13L4.36 869.078h50.862c17.505 0 32.48-12.689 35.514-30.09m-121.8 110.967l10.623-60.91h-50.932c-17.52 0-32.504 12.709-35.523 30.13l-10.545 60.87h50.862c17.504 0 32.48-12.69 35.516-30.09M1184.452-267.378l10.622-60.911h-50.93c-17.52 0-32.506 12.711-35.524 30.13l-10.546 60.87h50.863c17.503 0 32.481-12.687 35.515-30.09m-121.303 110.1l10.624-60.91h-50.932c-17.52 0-32.504 12.711-35.523 30.13l-10.545 60.87h50.862c17.504 0 32.48-12.687 35.514-30.09M941.35-46.312l10.622-60.91h-50.93c-17.52 0-32.505 12.71-35.524 30.13l-10.546 60.87h50.862c17.505 0 32.481-12.69 35.517-30.09M819.548 64.653l10.622-60.91H779.24c-17.518 0-32.505 12.708-35.522 30.129l-10.547 60.87h50.862c17.505 0 32.48-12.688 35.516-30.089m-121.3 110.1l10.62-60.91H657.94c-17.52 0-32.504 12.711-35.523 30.13l-10.547 60.87h50.863c17.504 0 32.48-12.687 35.515-30.09M577.31 286.22l10.624-60.911h-50.932c-17.52 0-32.504 12.71-35.523 30.128l-10.545 60.872h50.862c17.504 0 32.48-12.69 35.514-30.09m-121.3 110.1l10.622-60.91h-50.93c-17.52 0-32.505 12.708-35.524 30.129l-10.546 60.87h50.862c17.505 0 32.481-12.688 35.517-30.089M334.209 507.286l10.622-60.911H293.9c-17.519 0-32.505 12.71-35.522 30.13l-10.547 60.87h50.862c17.505 0 32.48-12.69 35.516-30.09m-121.301 110.1l10.622-60.91h-50.931c-17.519 0-32.505 12.71-35.522 30.13l-10.547 60.87h50.862c17.504 0 32.48-12.687 35.516-30.09M91.105 728.35l10.624-60.91H50.797c-17.52 0-32.504 12.712-35.523 30.13L4.73 758.44h50.86c17.505 0 32.48-12.688 35.516-30.09M-30.696 839.317l10.623-60.91h-50.931c-17.52 0-32.505 12.708-35.523 30.129l-10.546 60.87h50.862c17.505 0 32.48-12.688 35.515-30.09m-121.301 110.101l10.623-60.91h-50.931c-17.52 0-32.505 12.71-35.522 30.13l-10.547 60.87h50.862c17.505 0 32.48-12.69 35.515-30.09M1063.518-267.917l10.623-60.91h-50.931c-17.52 0-32.504 12.71-35.523 30.13l-10.546 60.87h50.862c17.505 0 32.481-12.688 35.515-30.09m-121.8 110.966l10.622-60.91H901.41c-17.52 0-32.505 12.71-35.523 30.13l-10.546 60.87h50.862c17.505 0 32.48-12.688 35.516-30.09M819.917-45.985l10.622-60.91h-50.932c-17.518 0-32.504 12.71-35.52 30.129l-10.548 60.87H784.4c17.504 0 32.48-12.689 35.516-30.09m-121.301 110.1l10.622-60.91h-50.932c-17.518 0-32.504 12.708-35.521 30.13l-10.547 60.87h50.861c17.505 0 32.481-12.689 35.517-30.09M576.813 175.082l10.623-60.91h-50.931c-17.52 0-32.505 12.71-35.523 30.13l-10.546 60.87h50.86c17.505 0 32.481-12.688 35.517-30.09m-121.302 110.1l10.624-60.91h-50.931c-17.52 0-32.505 12.71-35.523 30.128l-10.546 60.871h50.862c17.505 0 32.48-12.689 35.514-30.089m-121.8 110.966l10.623-60.91h-50.932c-17.52 0-32.504 12.707-35.521 30.129l-10.547 60.87h50.862c17.504 0 32.48-12.689 35.514-30.09M212.775 507.614l10.623-60.91h-50.93c-17.52 0-32.505 12.709-35.522 30.13l-10.548 60.87h50.862c17.505 0 32.481-12.69 35.515-30.09m-121.3 110.1l10.622-60.91H51.165c-17.519 0-32.503 12.71-35.522 30.13l-10.546 60.87h50.861c17.505 0 32.482-12.688 35.517-30.09M-30.326 728.677l10.622-60.909h-50.932c-17.519 0-32.504 12.711-35.522 30.129l-10.546 60.871h50.863c17.503 0 32.481-12.689 35.515-30.09m-121.303 110.1l10.624-60.91h-50.932c-17.52 0-32.504 12.708-35.523 30.13l-10.545 60.87h50.861c17.504 0 32.481-12.689 35.515-30.09M-273.43 949.745l10.623-60.91h-50.93c-17.521 0-32.505 12.709-35.524 30.13l-10.546 60.87h50.862c17.505 0 32.481-12.69 35.515-30.09M941.22-268.089L951.842-329H900.91c-17.52 0-32.504 12.711-35.523 30.13L854.843-238h50.861c17.505 0 32.481-12.687 35.515-30.09M820.284-156.622l10.623-60.911h-50.93c-17.52 0-32.505 12.711-35.522 30.13l-10.548 60.87h50.862c17.505 0 32.481-12.687 35.515-30.09m-121.301 110.1l10.623-60.91h-50.931c-17.519 0-32.505 12.71-35.522 30.13l-10.547 60.87h50.862c17.505 0 32.48-12.69 35.515-30.09m-121.8 110.966l10.622-60.91h-50.932c-17.519 0-32.504 12.708-35.522 30.13l-10.546 60.87h50.86c17.506 0 32.482-12.69 35.518-30.09M455.382 175.41l10.622-60.911H415.07c-17.518 0-32.503 12.711-35.522 30.13l-10.545 60.87h50.862c17.504 0 32.482-12.687 35.516-30.09m-121.303 110.1l10.623-60.91h-50.931c-17.52 0-32.505 12.711-35.523 30.129l-10.546 60.87h50.862c17.503 0 32.48-12.688 35.515-30.088M212.278 396.474l10.623-60.91H171.97c-17.52 0-32.505 12.708-35.522 30.13l-10.547 60.87h50.862c17.503 0 32.48-12.69 35.515-30.09m-121.302 110.1l10.624-60.91H50.668c-17.52 0-32.502 12.71-35.52 30.13L4.6 536.664h50.862c17.504 0 32.48-12.689 35.514-30.09m-121.8 110.967L-20.2 556.63h-50.932c-17.52 0-32.503 12.711-35.521 30.13l-10.547 60.87h50.863c17.503 0 32.48-12.687 35.515-30.09M-151.76 729.006l10.622-60.91h-50.93c-17.52 0-32.504 12.712-35.522 30.13l-10.548 60.87h50.864c17.503 0 32.48-12.688 35.514-30.09M-273.06 839.106l10.622-60.91h-50.93c-17.52 0-32.506 12.708-35.524 30.129l-10.546 60.87h50.863c17.503 0 32.481-12.688 35.515-30.089m-121.803 110.967l10.624-60.911h-50.932c-17.52 0-32.504 12.71-35.523 30.13l-10.545 60.87h50.862c17.504 0 32.48-12.69 35.514-30.09M819.787-267.761l10.623-60.91h-50.931c-17.52 0-32.505 12.71-35.523 30.13l-10.546 60.87h50.862c17.503 0 32.48-12.688 35.514-30.09m-121.8 110.966l10.623-60.91h-50.932c-17.52 0-32.504 12.71-35.521 30.13l-10.547 60.87h50.862c17.503 0 32.48-12.688 35.514-30.09m-121.301 110.1l10.623-60.91h-50.93c-17.52 0-32.504 12.71-35.522 30.129l-10.548 60.87h50.862c17.505 0 32.481-12.689 35.515-30.09M455.75 64.77l10.622-60.91h-50.931c-17.52 0-32.503 12.707-35.522 30.129l-10.547 60.87h50.864c17.503 0 32.479-12.689 35.514-30.09M334.45 174.87l10.62-60.91h-50.929c-17.52 0-32.504 12.71-35.523 30.13l-10.547 60.87h50.863c17.504 0 32.481-12.688 35.515-30.09M212.648 285.836l10.622-60.91h-50.93c-17.521 0-32.506 12.71-35.525 30.128l-10.545 60.871h50.862c17.504 0 32.482-12.688 35.516-30.089M90.845 396.802l10.623-60.91h-50.93c-17.521 0-32.505 12.707-35.524 30.129L4.468 426.89H55.33c17.505 0 32.481-12.689 35.515-30.09m-121.3 110.101l10.622-60.91h-50.931c-17.52 0-32.505 12.709-35.523 30.13l-10.546 60.87h50.862c17.505 0 32.48-12.69 35.516-30.09m-121.801 110.966l10.622-60.91h-50.93c-17.52 0-32.506 12.71-35.523 30.13l-10.547 60.87h50.862c17.504 0 32.48-12.688 35.516-30.09m-121.301 110.098l10.622-60.909h-50.93c-17.521 0-32.506 12.711-35.525 30.129l-10.545 60.871h50.862c17.504 0 32.48-12.689 35.516-30.09M-395.36 838.933l10.623-60.91h-50.931c-17.52 0-32.505 12.707-35.523 30.129l-10.546 60.87h50.862c17.505 0 32.48-12.689 35.515-30.09m-120.434 110.601l10.622-60.91h-50.931c-17.52 0-32.505 12.709-35.523 30.13l-10.546 60.87h50.862c17.505 0 32.48-12.69 35.516-30.09M698.356-267.434l10.621-60.91h-50.93c-17.52 0-32.505 12.71-35.524 30.13l-10.546 60.87h50.863c17.503 0 32.481-12.688 35.515-30.09m-121.303 110.1l10.624-60.91h-50.931c-17.52 0-32.505 12.71-35.523 30.13l-10.546 60.87h50.862c17.505 0 32.48-12.688 35.514-30.09M455.252-46.37l10.623-60.91h-50.932c-17.52 0-32.504 12.71-35.523 30.13l-10.545 60.87h50.862c17.504 0 32.48-12.69 35.516-30.09m-121.301 110.1l10.621-60.91h-50.93c-17.52 0-32.505 12.708-35.522 30.13l-10.548 60.87h50.862c17.505 0 32.481-12.69 35.517-30.09M213.016 175.198l10.622-60.911h-50.93c-17.52 0-32.504 12.711-35.522 30.13l-10.548 60.87h50.864c17.503 0 32.479-12.687 35.514-30.09M91.213 286.165l10.624-60.911H50.906c-17.52 0-32.505 12.711-35.523 30.129L4.837 316.253h50.862c17.505 0 32.479-12.689 35.514-30.09m-121.3 110.1l10.623-60.91h-50.932c-17.52 0-32.504 12.708-35.523 30.13l-10.545 60.87h50.862c17.504 0 32.48-12.69 35.516-30.09M-151.887 507.23l10.621-60.911h-50.93c-17.52 0-32.505 12.71-35.522 30.13l-10.548 60.87h50.862c17.505 0 32.481-12.689 35.517-30.09m-121.302 110.1l10.622-60.91h-50.932c-17.519 0-32.505 12.711-35.522 30.13l-10.546 60.87h50.861c17.505 0 32.482-12.687 35.517-30.09m-121.803 110.965l10.624-60.91H-435.3c-17.52 0-32.505 12.712-35.524 30.13l-10.545 60.87h50.86c17.505 0 32.48-12.688 35.516-30.09m-121.8 110.967l10.623-60.91h-50.932c-17.52 0-32.504 12.708-35.523 30.13l-10.545 60.87h50.861c17.505 0 32.481-12.69 35.515-30.09m-121.301 110.1l10.623-60.91h-50.931c-17.52 0-32.504 12.71-35.521 30.13l-10.548 60.87h50.862c17.505 0 32.481-12.689 35.515-30.09M577.42-267.972l10.624-60.91h-50.932c-17.52 0-32.504 12.71-35.523 30.13l-10.545 60.87h50.861c17.505 0 32.48-12.688 35.515-30.09m-121.8 110.966l10.622-60.91h-50.93c-17.521 0-32.505 12.71-35.524 30.13l-10.546 60.87h50.862c17.505 0 32.481-12.688 35.517-30.09M333.82-46.04l10.622-60.91h-50.931c-17.519 0-32.505 12.71-35.522 30.129l-10.547 60.87h50.862c17.505 0 32.48-12.689 35.516-30.09M212.52 64.059l10.622-60.91H172.21c-17.519 0-32.505 12.709-35.522 30.13l-10.547 60.87h50.862c17.504 0 32.48-12.689 35.516-30.09M90.716 175.026l10.624-60.91H50.408c-17.52 0-32.504 12.71-35.523 30.13L4.34 205.115H55.2c17.504 0 32.48-12.688 35.516-30.09m-121.301 110.1l10.623-60.91h-50.931c-17.52 0-32.505 12.71-35.523 30.128l-10.546 60.872H-66.1c17.505 0 32.48-12.69 35.515-30.09M-151.52 396.591l10.623-60.91h-50.931c-17.52 0-32.505 12.707-35.522 30.129l-10.547 60.87h50.862c17.505 0 32.48-12.689 35.515-30.09m-121.802 110.967l10.624-60.91h-50.932c-17.518 0-32.504 12.709-35.521 30.13l-10.547 60.87h50.862c17.504 0 32.48-12.69 35.514-30.09m-121.3 110.1l10.623-60.91h-50.932c-17.518 0-32.503 12.71-35.521 30.13L-481 647.747h50.861c17.505 0 32.481-12.688 35.517-30.09m-121.802 110.964l10.622-60.909h-50.932c-17.519 0-32.503 12.712-35.522 30.13l-10.546 60.87h50.863c17.503 0 32.481-12.688 35.515-30.09m-121.303 110.1l10.624-60.91h-50.931c-17.52 0-32.505 12.708-35.523 30.13l-10.546 60.87h50.862c17.503 0 32.48-12.689 35.514-30.09m-121.8 110.967l10.623-60.91h-50.932c-17.52 0-32.504 12.709-35.523 30.13l-10.545 60.87h50.862c17.503 0 32.48-12.69 35.514-30.09M455.988-267.645l10.624-60.91h-50.931c-17.52 0-32.505 12.71-35.523 30.13l-10.546 60.87h50.862c17.505 0 32.48-12.688 35.514-30.09m-121.8 110.966l10.623-60.91h-50.932c-17.52 0-32.504 12.71-35.521 30.13l-10.547 60.87h50.862c17.504 0 32.48-12.688 35.514-30.09M212.886-46.58l10.623-60.91h-50.93c-17.52 0-32.505 12.709-35.522 30.128L126.509-16.49h50.862c17.505 0 32.481-12.689 35.515-30.09M91.086 64.386l10.622-60.91H50.777c-17.518 0-32.503 12.708-35.522 30.13L4.708 94.475H55.57c17.505 0 32.48-12.689 35.516-30.09M-30.715 175.353l10.622-60.91h-50.932c-17.519 0-32.504 12.71-35.522 30.13l-10.546 60.87h50.863c17.503 0 32.481-12.688 35.515-30.09m-121.303 110.1l10.624-60.91h-50.932c-17.52 0-32.504 12.71-35.523 30.128l-10.545 60.871h50.861c17.504 0 32.481-12.689 35.515-30.09m-121.801 110.966l10.623-60.91h-50.931c-17.52 0-32.504 12.708-35.523 30.13l-10.546 60.87h50.862c17.503 0 32.481-12.69 35.515-30.09m-121.3 110.1l10.622-60.91h-50.931c-17.52 0-32.505 12.71-35.522 30.13l-10.547 60.87h50.862c17.505 0 32.48-12.689 35.516-30.09m-120.935 111.467l10.622-60.911h-50.931c-17.519 0-32.503 12.711-35.522 30.13l-10.547 60.87h50.863c17.503 0 32.48-12.687 35.515-30.09M-637.855 728.95l10.622-60.909h-50.93c-17.52 0-32.505 12.711-35.523 30.129l-10.547 60.871h50.863c17.503 0 32.48-12.689 35.515-30.091M-759.157 839.05l10.622-60.91h-50.93c-17.52 0-32.504 12.708-35.522 30.13l-10.548 60.87h50.864c17.503 0 32.48-12.69 35.514-30.09m-121.801 110.967l10.622-60.911h-50.93c-17.52 0-32.506 12.71-35.524 30.13l-10.546 60.87h50.863c17.503 0 32.481-12.689 35.515-30.09M333.69-267.817l10.623-60.91h-50.931c-17.52 0-32.505 12.71-35.523 30.13l-10.546 60.87h50.862c17.503 0 32.48-12.687 35.515-30.09M212.754-156.352l10.624-60.91h-50.931c-17.52 0-32.505 12.71-35.523 30.13l-10.546 60.87h50.862c17.503 0 32.48-12.687 35.514-30.09m-121.3 110.1l10.623-60.91H51.145c-17.52 0-32.504 12.71-35.521 30.129L5.077-16.163h50.862c17.504 0 32.48-12.688 35.516-30.09M-30.346 64.715l10.621-60.91h-50.93c-17.52 0-32.504 12.708-35.522 30.129l-10.548 60.87h50.864c17.503 0 32.48-12.688 35.515-30.09m-121.302 110.101l10.622-60.91h-50.93c-17.52 0-32.504 12.71-35.523 30.13l-10.547 60.87h50.864c17.503 0 32.48-12.688 35.514-30.09M-273.449 285.78l10.622-60.91h-50.93c-17.52 0-32.506 12.71-35.524 30.128l-10.546 60.872h50.863c17.503 0 32.481-12.69 35.515-30.09M-395.25 396.746l10.622-60.91h-50.932c-17.52 0-32.504 12.708-35.523 30.129l-10.545 60.87h50.862c17.504 0 32.48-12.689 35.516-30.09m-121.301 110.101l10.621-60.91h-50.93c-17.52 0-32.505 12.709-35.524 30.13l-10.546 60.87h50.862c17.505 0 32.481-12.69 35.517-30.09m-121.802 110.966l10.622-60.91h-50.93c-17.52 0-32.506 12.71-35.523 30.13l-10.547 60.87h50.862c17.505 0 32.48-12.688 35.516-30.09m-120.435 110.599l10.622-60.91h-50.93c-17.52 0-32.504 12.712-35.523 30.13l-10.547 60.87h50.862c17.505 0 32.48-12.688 35.516-30.09m-121.801 110.967l10.622-60.91h-50.93c-17.521 0-32.506 12.707-35.525 30.129l-10.545 60.87h50.862c17.504 0 32.48-12.689 35.516-30.09m-121.303 110.101l10.623-60.91h-50.93c-17.521 0-32.505 12.709-35.524 30.13l-10.546 60.87h50.862c17.505 0 32.481-12.69 35.515-30.09M212.258-267.49l10.623-60.91h-50.93c-17.521 0-32.506 12.71-35.525 30.13l-10.545 60.87h50.862c17.504 0 32.482-12.688 35.516-30.09M90.957-157.39l10.622-60.91H50.648c-17.52 0-32.504 12.71-35.523 30.13L4.579-127.3h50.862c17.505 0 32.481-12.688 35.516-30.09m-121.8 110.965l10.621-60.91h-50.931c-17.519 0-32.505 12.71-35.523 30.13l-10.546 60.87h50.862c17.505 0 32.48-12.689 35.516-30.09m-120.435 110.6l10.622-60.91h-50.93c-17.52 0-32.506 12.708-35.523 30.13l-10.547 60.87h50.862c17.504 0 32.48-12.689 35.516-30.09M-273.08 175.142l10.622-60.91h-50.93c-17.521 0-32.508 12.71-35.525 30.13l-10.545 60.87h50.86c17.506 0 32.482-12.688 35.518-30.09m-121.803 110.966l10.623-60.91h-50.931c-17.52 0-32.505 12.71-35.523 30.128l-10.546 60.871h50.862c17.505 0 32.48-12.689 35.515-30.09m-121.302 110.1l10.624-60.91h-50.931c-17.519 0-32.505 12.708-35.523 30.13l-10.546 60.87h50.862c17.505 0 32.48-12.689 35.514-30.09m-121.8 110.967l10.623-60.91h-50.932c-17.518 0-32.504 12.709-35.521 30.13l-10.547 60.87h50.862c17.504 0 32.48-12.69 35.516-30.09m-121.301 110.1l10.621-60.91h-50.93c-17.52 0-32.505 12.71-35.522 30.13l-10.548 60.87h50.862c17.505 0 32.481-12.688 35.517-30.09m-121.802 110.964l10.622-60.909h-50.932c-17.519 0-32.505 12.711-35.522 30.129l-10.546 60.871h50.861c17.505 0 32.482-12.689 35.517-30.09m-121.803 110.966l10.624-60.91h-50.931c-17.52 0-32.505 12.708-35.523 30.13l-10.546 60.87h50.86c17.507 0 32.483-12.69 35.516-30.09m-120.435 110.6l10.624-60.91h-50.932c-17.52 0-32.504 12.71-35.523 30.13l-10.545 60.87h50.862c17.504 0 32.48-12.689 35.514-30.09M91.326-268.027l10.622-60.911H51.017c-17.52 0-32.505 12.71-35.523 30.13l-10.546 60.87H55.81c17.505 0 32.48-12.687 35.516-30.09M-30.475-157.061l10.622-60.911h-50.932c-17.518 0-32.504 12.71-35.523 30.13l-10.545 60.87h50.861c17.505 0 32.481-12.687 35.517-30.09M-152.276-46.096l10.621-60.91h-50.93c-17.52 0-32.505 12.71-35.522 30.129l-10.548 60.87h50.862c17.505 0 32.481-12.688 35.517-30.09m-121.302 110.1l10.622-60.91h-50.93c-17.52 0-32.507 12.709-35.524 30.13l-10.546 60.87h50.861c17.505 0 32.482-12.688 35.517-30.09M-395.38 174.97l10.624-60.91h-50.931c-17.52 0-32.505 12.71-35.524 30.13l-10.545 60.87h50.862c17.504 0 32.48-12.687 35.514-30.09m-120.435 110.6l10.624-60.91h-50.932c-17.518 0-32.504 12.71-35.523 30.128l-10.545 60.872h50.861c17.505 0 32.481-12.69 35.515-30.09m-121.8 110.966l10.622-60.91h-50.931c-17.518 0-32.504 12.708-35.521 30.129l-10.548 60.87h50.862c17.505 0 32.481-12.688 35.517-30.09m-121.802 110.967l10.622-60.91h-50.931c-17.519 0-32.505 12.71-35.522 30.13l-10.547 60.87h50.862c17.505 0 32.48-12.69 35.516-30.09m-121.301 110.1l10.622-60.91h-50.932c-17.519 0-32.505 12.71-35.522 30.13l-10.546 60.87h50.86c17.506 0 32.482-12.688 35.518-30.09m-121.803 110.965l10.624-60.91h-50.932c-17.52 0-32.504 12.712-35.523 30.13l-10.545 60.87h50.86c17.506 0 32.482-12.688 35.516-30.09m-121.301 110.1l10.623-60.91h-50.931c-17.52 0-32.505 12.709-35.523 30.13l-10.546 60.87h50.862c17.505 0 32.48-12.689 35.515-30.09m-121.802 110.967l10.624-60.91h-50.931c-17.52 0-32.505 12.709-35.522 30.13l-10.547 60.87h50.862c17.505 0 32.48-12.69 35.514-30.09" mask="url(#prefix__d)" opacity=".1" transform="rotate(-20 721.398 325.637)"/>
    </g>
</svg>
