<svg xmlns="http://www.w3.org/2000/svg" width="20" height="20" viewBox="0 0 20 20">
    <g fill="none" fill-rule="evenodd">
        <path d="M0 0H20V20H0z"/>
        <path fill="#33835C" fill-rule="nonzero" d="M6.385 5.385l.924 1.562 2.718 4.63c.979-1.729 2.12-3.737 2.664-4.63l.924-1.562c.49-.78 1.142-.223 2.61.335.435.167.163.614-.055 1.004-1.087 1.841-4.947 8.59-5.164 8.814-.109.111-1.849.223-2.012 0-1.25-1.674-4.131-6.973-5.164-8.814-.218-.39-.49-.837-.055-1.004 1.468-.558 2.175-1.116 2.61-.335z"/>
    </g>
</svg>
